<svg width="16" height="17" viewBox="0 0 16 17" fill="none" xmlns="http://www.w3.org/2000/svg">
<g clip-path="url(#clip0_813_5366)">
<path d="M4.66699 6.94475C4.66699 6.47319 4.85432 6.02095 5.18776 5.68751C5.5212 5.35407 5.97344 5.16675 6.44499 5.16675H12.2223C12.4558 5.16675 12.687 5.21274 12.9027 5.30209C13.1185 5.39144 13.3145 5.52241 13.4796 5.68751C13.6447 5.85261 13.7756 6.04862 13.865 6.26434C13.9543 6.48005 14.0003 6.71126 14.0003 6.94475V12.7221C14.0003 12.9556 13.9543 13.1868 13.865 13.4025C13.7756 13.6182 13.6447 13.8142 13.4796 13.9793C13.3145 14.1444 13.1185 14.2754 12.9027 14.3647C12.687 14.4541 12.4558 14.5001 12.2223 14.5001H6.44499C6.2115 14.5001 5.9803 14.4541 5.76458 14.3647C5.54886 14.2754 5.35286 14.1444 5.18776 13.9793C5.02265 13.8142 4.89169 13.6182 4.80233 13.4025C4.71298 13.1868 4.66699 12.9556 4.66699 12.7221V6.94475Z" stroke="currentColor" stroke-width="1.2" stroke-linecap="round" stroke-linejoin="round"/>
<path d="M2.67467 11.658C2.47023 11.5415 2.30018 11.373 2.18172 11.1697C2.06325 10.9663 2.00057 10.7353 2 10.5V3.83333C2 3.1 2.6 2.5 3.33333 2.5H10C10.5 2.5 10.772 2.75667 11 3.16667" stroke="currentColor" stroke-width="1.2" stroke-linecap="round" stroke-linejoin="round"/>
</g>
<defs>
<clipPath id="clip0_813_5366">
<rect width="16" height="16" fill="currentColor" transform="translate(0 0.5)"/>
</clipPath>
</defs>
</svg>
