<svg xmlns="http://www.w3.org/2000/svg" width="20" height="21" viewBox="0 0 20 21" fill="none">
<path d="M2.5 10.5C2.5 11.4849 2.69399 12.4602 3.0709 13.3701C3.44781 14.2801 4.00026 15.1069 4.6967 15.8033C5.39314 16.4997 6.21993 17.0522 7.12987 17.4291C8.03982 17.806 9.01509 18 10 18C10.9849 18 11.9602 17.806 12.8701 17.4291C13.7801 17.0522 14.6069 16.4997 15.3033 15.8033C15.9997 15.1069 16.5522 14.2801 16.9291 13.3701C17.306 12.4602 17.5 11.4849 17.5 10.5C17.5 9.51509 17.306 8.53982 16.9291 7.62987C16.5522 6.71993 15.9997 5.89314 15.3033 5.1967C14.6069 4.50026 13.7801 3.94781 12.8701 3.5709C11.9602 3.19399 10.9849 3 10 3C9.01509 3 8.03982 3.19399 7.12987 3.5709C6.21993 3.94781 5.39314 4.50026 4.6967 5.1967C4.00026 5.89314 3.44781 6.71993 3.0709 7.62987C2.69399 8.53982 2.5 9.51509 2.5 10.5Z" stroke="currentColor" stroke-width="1.5" stroke-linecap="round" stroke-linejoin="round"/>
<path d="M10 14.6666V14.675" stroke="currentColor" stroke-width="1.5" stroke-linecap="round" stroke-linejoin="round"/>
<path d="M10.0007 11.75C9.98531 11.4795 10.0583 11.2113 10.2086 10.9858C10.3589 10.7604 10.5784 10.5899 10.834 10.5C11.1472 10.3802 11.4284 10.1893 11.6553 9.94244C11.8822 9.69554 12.0487 9.39933 12.1418 9.07713C12.2348 8.75494 12.2517 8.41555 12.1913 8.0857C12.1308 7.75584 11.9946 7.44452 11.7934 7.17624C11.5922 6.90796 11.3315 6.69005 11.0317 6.53966C10.732 6.38927 10.4014 6.31051 10.0661 6.30958C9.73074 6.30865 9.39975 6.38557 9.09919 6.5343C8.79862 6.68302 8.53668 6.89948 8.33398 7.16664" stroke="currentColor" stroke-width="1.5" stroke-linecap="round" stroke-linejoin="round"/>
</svg>