<svg width="16" height="17" viewBox="0 0 16 17" fill="none" xmlns="http://www.w3.org/2000/svg">
<path d="M2 8.5C2 9.28793 2.15519 10.0681 2.45672 10.7961C2.75825 11.5241 3.20021 12.1855 3.75736 12.7426C4.31451 13.2998 4.97595 13.7417 5.7039 14.0433C6.43185 14.3448 7.21207 14.5 8 14.5C8.78793 14.5 9.56815 14.3448 10.2961 14.0433C11.0241 13.7417 11.6855 13.2998 12.2426 12.7426C12.7998 12.1855 13.2417 11.5241 13.5433 10.7961C13.8448 10.0681 14 9.28793 14 8.5C14 7.71207 13.8448 6.93185 13.5433 6.2039C13.2417 5.47595 12.7998 4.81451 12.2426 4.25736C11.6855 3.70021 11.0241 3.25825 10.2961 2.95672C9.56815 2.65519 8.78793 2.5 8 2.5C7.21207 2.5 6.43185 2.65519 5.7039 2.95672C4.97595 3.25825 4.31451 3.70021 3.75736 4.25736C3.20021 4.81451 2.75825 5.47595 2.45672 6.2039C2.15519 6.93185 2 7.71207 2 8.5Z" stroke="#96B9C5" stroke-width="1.2" stroke-linecap="round" stroke-linejoin="round"/>
<path d="M4.5 8.5C4.5 8.95963 4.59053 9.41475 4.76642 9.83939C4.94231 10.264 5.20012 10.6499 5.52513 10.9749C5.85013 11.2999 6.23597 11.5577 6.66061 11.7336C7.08525 11.9095 7.54037 12 8 12C8.45963 12 8.91475 11.9095 9.33939 11.7336C9.76403 11.5577 10.1499 11.2999 10.4749 10.9749C10.7999 10.6499 11.0577 10.264 11.2336 9.83939C11.4095 9.41475 11.5 8.95963 11.5 8.5C11.5 8.04037 11.4095 7.58525 11.2336 7.16061C11.0577 6.73597 10.7999 6.35013 10.4749 6.02513C10.1499 5.70012 9.76403 5.44231 9.33939 5.26642C8.91475 5.09053 8.45963 5 8 5C7.54037 5 7.08525 5.09053 6.66061 5.26642C6.23597 5.44231 5.85013 5.70012 5.52513 6.02513C5.20012 6.35013 4.94231 6.73597 4.76642 7.16061C4.59053 7.58525 4.5 8.04037 4.5 8.5Z" stroke="#96B9C5" stroke-width="1.2" stroke-linecap="round" stroke-linejoin="round"/>
</svg>
