<svg width="17" height="17" viewBox="0 0 17 17" fill="none" xmlns="http://www.w3.org/2000/svg">
<path d="M5.16634 9.83337C5.61079 10.6905 6.89967 11.8334 8.49967 11.8334C10.0997 11.8334 11.3886 10.6905 11.833 9.83337M15.1663 8.50004C15.1663 12.1819 12.1816 15.1667 8.49967 15.1667C4.81778 15.1667 1.83301 12.1819 1.83301 8.50004C1.83301 4.81814 4.81778 1.83337 8.49967 1.83337C12.1816 1.83337 15.1663 4.81814 15.1663 8.50004Z" stroke="#96B9C5" stroke-width="1.2" stroke-linecap="round"/>
<path d="M7.16634 5.83335C7.16634 6.20154 6.86786 6.50002 6.49967 6.50002C6.13148 6.50002 5.83301 6.20154 5.83301 5.83335C5.83301 5.46516 6.13148 5.16669 6.49967 5.16669C6.86786 5.16669 7.16634 5.46516 7.16634 5.83335Z" fill="#96B9C5"/>
<path d="M11.1663 5.83335C11.1663 6.20154 10.8679 6.50002 10.4997 6.50002C10.1315 6.50002 9.83301 6.20154 9.83301 5.83335C9.83301 5.46516 10.1315 5.16669 10.4997 5.16669C10.8679 5.16669 11.1663 5.46516 11.1663 5.83335Z" fill="#96B9C5"/>
</svg>
