<svg width="20" height="20" viewBox="0 0 20 20" fill="none" xmlns="http://www.w3.org/2000/svg">
<path fill-rule="evenodd" clip-rule="evenodd" d="M14.3986 11.5743C14.9609 11.5743 15.4328 12.0383 15.3468 12.5936C14.8424 15.8603 12.0459 18.2857 8.67313 18.2857C4.94155 18.2857 1.91699 15.2611 1.91699 11.5304C1.91699 8.45674 4.25208 5.59359 6.88103 4.94622C7.44594 4.80674 8.02489 5.20411 8.02489 5.78569C8.02489 9.72604 8.15734 10.7453 8.90559 11.2997C9.65383 11.8541 10.5337 11.5743 14.3986 11.5743Z" stroke="#96B9C5" stroke-width="1.2" stroke-linecap="round" stroke-linejoin="round"/>
<path fill-rule="evenodd" clip-rule="evenodd" d="M18.0778 8.293C18.1225 5.76142 15.0128 1.68072 11.2234 1.75089C10.9286 1.75616 10.6927 2.00177 10.6795 2.29563C10.5839 4.37721 10.7129 7.07458 10.7848 8.29738C10.8067 8.67809 11.1058 8.97721 11.4857 8.99914C12.7427 9.07107 15.5383 9.16931 17.59 8.85879C17.869 8.81668 18.0734 8.57458 18.0778 8.293Z" stroke="#96B9C5" stroke-width="1.2" stroke-linecap="round" stroke-linejoin="round"/>
</svg>
