<svg width="157" height="166" viewBox="0 0 157 166" fill="none" xmlns="http://www.w3.org/2000/svg">
<ellipse cx="59" cy="12" rx="59" ry="12" transform="matrix(-1 0 0 1 137 142)" fill="#030201"/>
<path d="M123.984 74.6373C123.892 74.6496 123.83 74.7321 123.84 74.8207C123.846 74.8758 123.88 74.9247 123.932 74.9491C132.335 79.0451 138.82 87.402 135.867 97.1497C134.931 100.234 132.563 102.208 129.663 103.819C127.901 104.794 125.986 105.479 123.914 105.873C123.784 105.895 123.698 106.02 123.723 106.152C124.021 107.701 124.268 109.569 124.462 111.757C124.489 112.085 124.465 112.745 124.388 113.738C124.329 114.496 124.092 115.753 123.67 117.507C123.329 118.925 122.879 120.117 122.315 121.08C120.536 124.125 117.931 126.585 115.03 128.6C114.808 128.756 114.756 129.061 114.91 129.278C114.91 129.281 114.916 129.287 114.919 129.29C115.282 129.77 115.332 130.357 115.609 130.877C116.296 132.167 116.961 133.454 117.598 134.737C118.463 136.477 118.805 138.289 118.623 140.178C118.568 140.753 119.153 141.068 119.446 141.499C120.043 142.382 120.511 143.076 120.847 143.583C122.377 145.897 123.455 148.281 124.08 150.733C124.773 153.453 122.285 155.77 120.382 157.32C118.254 159.053 115.772 160.352 113.136 161.132C112.924 161.193 112.714 161.254 112.502 161.309C110.411 161.853 108.24 162.073 106.082 161.981C104.077 161.893 101.86 161.602 99.9817 160.875C98.6822 160.371 97.469 159.518 96.8101 158.295C96.3389 157.421 96.1757 156.406 96.2312 155.416C96.3051 154.016 96.7023 152.665 97.5029 151.512C98.1649 150.562 99.1287 149.504 99.0548 148.263C98.9809 147.04 97.7554 147.022 97.0718 146.524C95.0703 145.06 93.6169 143.394 92.5237 141.193C92.1512 140.441 91.6338 139.778 90.978 139.2C89.2413 137.675 87.8987 135.917 86.9103 133.823C86.7594 133.503 86.821 133.359 86.7502 133.111C86.7224 133.013 86.6424 132.937 86.5438 132.91C85.2937 132.589 84.5793 132.417 84.4038 132.399C82.6517 132.207 80.7733 131.76 79.1167 131.779C77.0598 131.803 75.5571 131.794 73.8358 131.592C73.5494 131.559 72.7119 131.488 71.3262 131.378C70.1653 131.286 68.9613 131.054 67.7081 130.678C66.7104 130.382 65.8205 130.149 65.0384 129.981C64.1054 129.783 63.2309 129.511 62.4118 129.165C61.4418 128.756 60.8568 129.498 60.1917 129.905C60.05 129.993 60.0069 130.177 60.0931 130.317C60.1024 130.333 60.1116 130.345 60.1239 130.357C61.6974 132.13 62.6951 134.154 63.1139 136.428C63.2832 137.339 63.1262 138.693 62.6458 140.49C62.6243 140.566 62.6335 140.649 62.6643 140.719C63.4033 142.385 64.4041 143.904 65.0661 145.61C65.6604 147.141 65.9529 148.746 66.1438 150.369C66.2208 151.023 66.1839 151.726 65.8174 152.273C65.5372 152.692 65.1 152.977 64.6689 153.239C62.0854 154.82 59.5265 156.107 56.6074 156.962C53.7191 157.806 50.7353 158.326 47.7299 158.506C45.208 158.659 42.5876 158.61 40.0811 158.262C36.2659 157.727 31.4992 156.052 30.7233 151.754C30.3876 149.886 30.7233 147.692 31.878 146.142C32.657 145.1 33.4453 144.369 34.2428 143.95C35.6685 143.204 36.9864 142.709 38.2027 142.465C38.7847 142.349 39.4344 142.294 40.1519 142.3C40.309 142.303 40.4383 142.18 40.4414 142.025C40.4414 141.942 40.4075 141.863 40.3459 141.807C38.9633 140.591 38.0026 139.13 37.4576 137.427C36.7555 135.23 35.9149 133.041 35.2559 130.791C35.2159 130.66 35.1943 130.528 35.1851 130.391C35.0434 128.184 35.0404 126.457 35.1728 125.213C35.3267 123.776 35.7886 122.254 36.5615 120.643C37.6085 118.458 38.8094 116.847 40.7493 115.419C40.971 115.257 41.0141 114.946 40.8478 114.725C40.8386 114.713 40.8263 114.698 40.817 114.686C40.5491 114.395 40.1796 114.071 39.7116 113.72C38.2859 112.644 37.1342 111.158 36.2505 109.673C34.1351 106.127 33.2421 102.291 33.5654 98.1614C34.0242 92.3201 35.5608 86.8212 38.172 81.6707C38.5168 80.9891 39.028 80.1546 39.7085 79.1612C39.9086 78.8678 39.8471 78.4704 39.5699 78.2534C37.8948 76.936 37.4268 75.2089 36.503 72.7208C36.4322 72.5313 36.3921 72.3357 36.3829 72.1339C36.2443 69.4196 36.2751 67.4573 36.4784 66.2499C36.543 65.8861 36.8664 64.7827 37.4483 62.9395C37.7932 61.8513 38.2982 60.7754 38.9633 59.7147C39.0957 59.5069 39.0865 59.2379 38.9387 59.0361C38.2674 58.1222 37.5561 57.1838 37.1804 55.9734C36.9772 55.3223 36.4476 54.5979 36.2166 53.8612C35.5146 51.5993 35.142 49.3802 35.1019 47.2038C35.0373 43.8965 36.2721 40.3263 39.7762 39.2901C39.8686 39.2626 39.9364 39.1862 39.9518 39.0914C40.2997 37.074 40.7739 35.5732 42.4644 34.3353C42.7138 34.1549 42.9048 33.9043 43.0125 33.62C43.2127 33.1004 43.6961 31.8319 44.4629 29.8114C44.9463 28.5398 45.4944 27.2988 46.1072 26.0884C48.315 21.7388 51.1479 17.5756 54.7537 14.0879C56.9369 11.9758 59.4496 9.97367 62.2917 8.07854C63.3571 7.3694 64.4318 6.7489 65.5187 6.22009C66.966 5.51401 68.4471 4.64897 70.0021 4.06209C73.0814 2.90056 76.2222 1.86435 79.4585 1.22551C81.1521 0.892334 82.781 0.372701 84.5639 0.277945C88.5946 0.0670352 92.1943 -0.183611 95.8001 0.201528C96.1326 0.235152 97.8539 0.534704 100.967 1.09407C102.932 1.44559 104.49 1.87047 105.641 2.36259C108.527 3.59748 111.005 4.86905 113.075 6.17424C114.417 7.02094 115.581 8.3781 116.422 9.56714C117.065 10.4811 117.395 11.6304 117.413 13.0151C117.469 16.9306 112.65 18.7585 109.537 18.9969C108.637 19.0642 108.108 19.107 107.948 19.1223C107.03 19.2078 106.316 19.217 105.808 19.1498C104.496 18.9817 103.649 18.8869 103.264 18.8686C102.852 18.8502 102.553 18.5079 102.131 18.5598C102.069 18.566 102.026 18.621 102.032 18.679C102.032 18.7004 102.045 18.7218 102.06 18.7402C103.012 19.7947 103.655 21.1641 104.379 22.3501C104.684 22.8422 105.022 23.5361 105.398 24.4286C106.707 27.522 107.406 29.194 107.498 29.4446C107.945 30.6581 108.551 32.6663 109.312 35.4662C109.684 36.8356 109.798 38.6543 110.112 40.2346C110.162 40.4792 110.377 40.6564 110.63 40.6534C113.475 40.632 115.464 41.6437 116.597 43.6886C117.247 44.8655 117.576 46.351 117.58 48.1453C117.583 50.5233 117.472 52.9259 116.554 55.0136C116.49 55.1634 116.554 55.3345 116.705 55.3987C116.727 55.4079 116.748 55.414 116.773 55.4201C118.371 55.6983 119.981 56.1873 121.604 56.8843C122.87 57.4283 124.271 58.4034 125.81 59.8125C125.897 59.892 125.964 59.9868 126.014 60.0907C126.195 60.485 126.303 60.8457 126.331 61.1789C126.34 61.292 126.439 61.3806 126.556 61.3745C129.182 61.2675 132.415 62.2609 134.183 64.3639C135.938 66.4547 136.773 69.2087 134.368 71.1803C133.093 72.2226 131.679 72.9592 130.128 73.3841C128.144 73.9251 126.1 74.3439 123.991 74.6373H123.984Z" fill="#1B0302"/>
<path d="M109.884 68.7808C109.859 68.9 109.742 68.9734 109.622 68.9489C106.762 68.3468 103.95 68.2979 101.194 68.7991C99.7995 69.0528 98.7648 67.9463 99.3622 66.6717C99.8426 65.6416 100.736 64.9325 102.044 64.5412C102.962 64.2661 104.471 64.1408 105.496 63.7129C106.066 63.4744 106.688 63.0924 107.356 62.5697C108.594 61.6007 109.862 62.3496 110.084 63.7526C110.346 65.3818 110.278 67.0569 109.884 68.7808Z" fill="#8E2604"/>
<path d="M95.6108 81.4598C96.9318 82.8567 97.7263 83.7982 97.9942 84.2903C98.8748 85.9134 99.7247 87.3378 100.541 88.5696C103.993 93.7751 108.901 96.3977 115.272 96.4344C115.37 96.4344 115.466 96.4711 115.537 96.5383L119.256 99.919C120.319 102.245 121.089 104.69 121.56 107.261C122.126 110.333 122.126 113.151 121.372 116.116C120.685 116.608 119.986 116.535 119.278 115.896C119.238 115.86 119.213 115.808 119.213 115.753V110.416C119.213 110.367 119.189 110.321 119.149 110.293C118.807 110.055 118.431 110.165 118.019 110.62C118.822 106.402 117.51 101.75 113.658 99.5033C112.408 98.7758 110.921 98.1706 109.495 98.5496C109.123 98.6474 108.858 98.9776 108.842 99.3596C108.827 99.8151 108.861 100.234 108.947 100.613C110.105 105.773 110.151 110.541 109.575 115.661C109.406 117.149 110.918 116.887 111.983 116.871L112.371 117.366C112.454 117.473 112.445 117.623 112.35 117.721C108.895 121.135 103.737 123.22 98.9949 123.639C97.4922 123.773 95.9896 124.002 94.4222 124.042C90.5116 124.137 86.8288 123.84 83.3708 123.159C82.133 122.914 80.501 122.428 78.4717 121.704C75.8759 120.775 73.5942 119.549 71.6266 118.027C70.7705 117.363 70.2286 116.7 69.9976 116.04C73.2247 115.367 72.341 112.14 70.7274 110.455C70.6073 110.33 70.5396 110.168 70.5365 109.997C70.5273 109.541 70.6812 109.199 70.9984 108.97C71.7405 110.134 72.7135 111.226 73.9114 112.237C75.1677 113.298 77.0368 113.503 77.9606 111.929C78.4009 111.18 78.7396 110.275 78.9737 109.217C79.414 107.221 79.7157 105.494 79.8728 104.042C79.9436 103.398 79.6665 103.031 79.0414 102.939C77.939 102.777 76.8459 102.444 75.7589 101.939C75.3247 101.738 74.8105 101.924 74.6073 102.352C74.5826 102.407 74.5611 102.465 74.5488 102.523L74.3794 103.254C74.2686 103.731 74.5087 104.217 74.9552 104.421C75.5926 104.712 76.2762 104.868 77.0029 104.886C77.0768 104.886 77.1384 104.95 77.1353 105.024C77.1353 105.024 77.1353 105.024 77.1353 105.027C77.0276 106.928 76.6919 108.676 76.1223 110.272C76.033 110.523 75.7558 110.651 75.5033 110.562C75.4633 110.547 75.4233 110.529 75.3894 110.504C73.6404 109.294 73.1723 107.39 72.9137 105.351C72.5719 102.658 73.4064 100.216 75.4202 98.03C75.9498 97.4553 77.6126 96.2663 78.3116 97.0916C78.4563 97.2597 78.481 97.5654 78.3855 98.0056C78.3024 98.3907 78.2808 98.7116 78.3147 98.9715C78.3301 99.0784 78.404 99.1671 78.5087 99.1976C80.2177 99.7112 80.7935 98.3234 80.7535 96.9204C80.7103 95.3982 79.3462 94.3926 77.8651 94.3314C76.9044 94.2917 76.1993 94.4109 75.7497 94.683C72.5781 96.6117 70.7521 99.4391 70.2717 103.165C70.2594 103.275 70.1978 103.404 70.0839 103.547C70.0438 102.633 69.7605 101.707 69.234 100.766C68.2579 99.0142 66.7952 98.0606 64.8461 97.8986C63.7991 97.813 62.9154 97.8925 62.1979 98.14C62.1086 98.1676 62.0101 98.1217 61.9793 98.0331C61.967 97.9933 61.967 97.9505 61.9854 97.9138C62.2472 97.3178 62.6783 96.6209 63.2756 95.8292C68.3687 89.0923 76.3809 84.1405 84.6456 81.9C88.4239 80.8791 92.0789 80.7324 95.6108 81.4598Z" fill="#8E2604"/>
<path d="M109.814 61.1361C110.766 59.1707 111.446 57.248 111.862 55.3682C112.321 53.4242 113.879 47.1886 110.994 46.4855C108.558 45.8925 105.46 48.8239 104.139 50.6395C102.627 52.7089 101.762 55.0197 101.537 57.569C101.531 57.6423 101.59 57.7065 101.664 57.7126C101.701 57.7126 101.738 57.7035 101.765 57.676L102.828 56.6642L104.081 63.1871C102.858 63.3125 101.747 63.6089 100.746 64.0797C100.672 64.1133 100.58 64.0797 100.546 64.0063C100.546 64.0033 100.543 63.9971 100.54 63.9941C99.034 59.7973 98.0394 54.9861 99.4189 50.8718C99.6744 50.1138 100.179 49.3099 100.934 48.4601C103.487 45.5899 106.597 43.8507 110.267 43.2455C111.597 43.0254 112.749 43.3586 113.722 44.245C115.52 45.8895 115.446 49.7317 115.04 52.015C114.421 55.5057 113.229 58.7764 111.468 61.83C111.409 61.9308 111.28 61.9645 111.179 61.9064L109.817 61.1361H109.814Z" fill="#FA8942"/>
<path d="M91.3824 46.2715C91.2069 49.2976 91.4686 51.2936 91.7519 54.3686C91.9213 56.1935 91.912 57.6148 91.7304 58.6327C90.5325 65.3726 85.2793 69.4563 78.2894 67.7018C75.7552 67.066 73.2241 66.4333 70.696 65.8067C70.9886 65.5591 71.3057 65.3787 71.6444 65.2626C71.8138 65.2014 71.9031 65.015 71.8415 64.8469C71.8323 64.8224 71.82 64.798 71.8046 64.7766L67.4813 58.4829C67.4443 58.4279 67.3889 58.382 67.3273 58.3576C66.188 57.8807 65.0271 57.8716 63.8478 58.3331C62.1357 57.3947 60.319 56.8996 58.3944 56.8476C58.3359 56.8476 58.2897 56.7956 58.2928 56.7345C58.2928 56.7192 58.2959 56.707 58.3021 56.6948C59.5707 54.1608 59.3829 51.8622 57.7416 49.7959C57.6893 49.7317 57.7016 49.6369 57.7663 49.585C57.7786 49.5758 57.7909 49.5697 57.8032 49.5636C57.9541 49.5055 58.1327 49.4841 58.3421 49.4994C59.0934 49.5575 59.9618 48.8819 60.3836 48.3042C61.0487 48.2951 61.7046 48.3745 62.3543 48.5426C63.9155 48.9492 65.4736 49.3771 67.0286 49.8234C67.5275 49.967 68.4297 49.9732 69.7322 49.8417C67.3766 52.8984 67.1149 56.0834 68.9439 59.3999C70.6529 62.4932 74.89 63.56 78 62.0561C80.9561 60.6287 82.9145 57.7035 82.7759 54.2892C82.6743 51.798 81.6212 49.9304 79.6228 48.6802C79.592 48.6619 79.5827 48.6221 79.6012 48.5916C79.6135 48.5732 79.632 48.561 79.6536 48.561C81.7351 48.4234 83.7058 48.3165 85.5626 48.24C86.8836 48.1881 88.0661 48.2645 89.113 48.4754C89.3378 48.5212 89.4764 48.4937 89.5225 48.3929C89.5687 48.2981 89.5503 48.1514 89.4671 47.9558L91.3824 46.2715Z" fill="#FA8942"/>
<path d="M48.5716 48.1147C48.2667 48.4112 47.8295 48.6527 47.5154 49.0409C44.3099 53.0268 44.5624 59.565 50.3883 61.0108C50.4807 61.0322 50.5392 61.1239 50.5177 61.2156C50.5115 61.237 50.5023 61.2584 50.4869 61.2798C49.5723 62.5116 49.0396 63.8046 48.8887 65.1587C48.8764 65.2779 48.7964 65.3788 48.6824 65.4185C47.0042 66.0237 45.1013 66.2835 43.9989 64.6054C42.7949 62.7745 42.7703 60.427 43.1306 58.2629C43.4693 56.2149 43.8049 54.4848 44.1405 53.0726C44.5994 51.1317 44.7841 49.099 44.6917 46.9685C44.6887 46.8737 44.7595 46.7943 44.8549 46.7881C44.8765 46.7881 44.895 46.7881 44.9165 46.7973L48.5408 47.9772C48.5839 47.9925 48.6085 48.0383 48.5931 48.0811C48.5901 48.0933 48.5808 48.1056 48.5716 48.1147Z" fill="#FA8942"/>
<path d="M64.0939 59.134C62.6559 59.4549 61.2394 59.8095 59.8445 60.2038C58.4619 60.5981 57.3195 60.6684 55.9862 60.6898C54.034 60.7235 52.4759 61.0719 51.4751 62.643C50.9301 63.4958 50.4775 64.1102 50.1172 64.4893C50.3543 63.3369 50.7607 62.423 51.3427 61.7413C53.7445 58.9353 57.3904 57.1777 61.1471 58.1375C62.1293 58.3882 63.1116 58.7213 64.0939 59.134Z" fill="#FA8942"/>
<path d="M118.584 82.7375C117.953 84.5165 117.174 86.1457 116.25 87.6282C116.188 87.7229 116.118 87.8116 116.034 87.891C114.806 89.0434 113.334 89.5753 111.616 89.4805C110.683 89.4285 109.882 89.1687 109.211 88.7011C106.966 87.1361 105.266 84.3392 103.021 82.4502C100.327 80.1791 97.1093 79.0634 93.3711 79.1031C93.2756 79.1031 93.1833 79.1368 93.1124 79.201C92.9246 79.3691 92.746 79.4608 92.5797 79.4761C92.4473 79.4669 92.3426 79.4424 92.2626 79.4027C92.1764 79.3599 92.1425 79.256 92.1887 79.1734C92.1887 79.1734 92.1887 79.1673 92.1918 79.1643C93.8607 76.4163 96.7182 76.1901 99.7082 76.9635C102.335 77.6421 104.761 78.4704 106.991 79.4516C107.009 79.4608 107.031 79.4516 107.04 79.4363C107.049 79.421 107.043 79.4027 107.031 79.3905C104.798 77.3456 102.184 76.0098 99.1816 75.3771C98.9415 75.3251 98.0639 75.319 96.5489 75.3526C96.4504 75.3526 96.358 75.3129 96.2933 75.2426C95.4496 74.3011 96.8353 73.268 97.6174 72.7697C97.7867 72.6628 97.9807 72.5955 98.184 72.5772C100.647 72.3602 102.593 72.3418 104.019 72.5222C106.141 72.7942 108.25 73.3108 110.341 74.0749C110.387 74.0902 110.436 74.0658 110.449 74.0199C110.458 73.9894 110.449 73.9557 110.43 73.9343C110.218 73.7356 109.928 73.54 109.562 73.3444C107.416 72.1981 104.998 71.5746 102.313 71.4737C102.286 71.4737 102.261 71.4462 102.264 71.4187C102.264 71.4126 102.264 71.4034 102.27 71.3973L103.194 69.8415C103.212 69.8078 103.249 69.7834 103.289 69.7773C108.669 69.0865 112.971 71.4218 115.794 75.7867C117.211 77.9783 118.141 80.2952 118.584 82.7375Z" fill="#FA8942"/>
<path d="M69.0911 110.792L69.3128 112.76C69.3344 112.953 69.1958 113.127 68.9987 113.148C68.9679 113.151 68.9372 113.148 68.9064 113.148C67.8563 112.995 66.7786 112.754 65.6732 112.421C62.9018 111.583 60.5277 114.181 58.5539 115.896C58.0489 116.333 57.2668 116.529 56.2106 116.483C55.2099 114.029 54.8434 111.492 55.1052 108.872C55.4008 105.91 56.3153 103.651 57.8457 102.092C59.6101 100.292 61.8918 99.4361 64.6939 99.5186C66.1381 99.5614 67.2805 100.087 68.1181 101.093C68.3552 101.377 68.4845 101.826 68.5091 102.441C68.5122 102.529 68.4445 102.606 68.3552 102.612C68.1735 102.621 67.3606 102.554 65.9164 102.404C63.6532 102.172 61.1097 102.719 59.3669 104.321C59.296 104.388 59.2899 104.504 59.3576 104.574C59.41 104.629 59.4869 104.645 59.5578 104.617C59.955 104.455 60.4138 104.339 60.9311 104.269C63.3483 103.929 65.4268 103.853 67.1666 104.033C67.9764 104.119 68.6908 104.452 69.3067 105.03C70.523 106.17 70.2828 107.811 69.593 109.199C69.5561 109.275 69.4606 109.309 69.3806 109.272C69.3744 109.272 69.3682 109.266 69.3652 109.263C66.3968 107.359 62.8864 107.059 60.0443 109.373C59.9427 109.456 59.9273 109.606 60.0104 109.706C60.0443 109.749 60.0936 109.777 60.1459 109.789C60.9619 109.96 62.052 109.538 62.8372 109.3C64.8695 108.682 67.4868 109.532 69.0911 110.792Z" fill="#FA8942"/>
<path d="M89.4676 47.9558C89.5508 48.1514 89.5693 48.2981 89.5231 48.3929C89.4769 48.4937 89.3383 48.5212 89.1135 48.4754C88.0666 48.2645 86.8842 48.1881 85.5632 48.24C83.7064 48.3165 81.7357 48.4234 79.6541 48.561C79.6171 48.561 79.5894 48.5915 79.5925 48.6282C79.5925 48.6496 79.6048 48.671 79.6233 48.6802C81.6217 49.9304 82.6748 51.798 82.7764 54.2892C82.915 57.7035 80.9566 60.6287 78.0005 62.0561C74.8905 63.56 70.6534 62.4932 68.9445 59.3999C67.1154 56.0834 67.3771 52.8984 69.7327 49.8417C69.8036 49.8264 69.8621 49.7775 69.9083 49.6889C69.9421 49.6278 69.9175 49.5513 69.8559 49.5177C69.8405 49.5085 69.822 49.5024 69.8036 49.5024C68.1562 49.371 66.5303 48.9247 66.555 46.8951C66.5888 44.0157 70.4872 42.8573 72.8397 42.6555C77.8835 42.2245 83.2476 42.7472 87.3953 45.4432C88.3037 46.0331 88.9965 46.8706 89.4676 47.9558Z" fill="#1B0302"/>
<path d="M111.862 55.3682C111.828 54.1119 111.859 52.9106 111.955 51.7674C112.038 50.7679 111.939 49.9793 111.659 49.4046C111.055 48.1697 109.537 48.4357 108.53 48.9889C106.203 50.2605 104.875 52.2473 103.557 54.5368C103.511 54.6193 103.542 54.7232 103.622 54.7691C103.659 54.7905 103.705 54.7966 103.748 54.7843C105.22 54.3992 106.122 55.576 106.073 56.9118C106.039 57.8777 105.882 58.7458 105.605 59.5191C105.59 59.5619 105.541 59.5833 105.497 59.565C105.467 59.5527 105.442 59.5222 105.442 59.4885C105.451 58.4462 105.331 57.4711 105.085 56.5664C104.974 56.1629 104.623 55.8786 104.226 55.8756C103.65 55.8725 103.182 56.1354 102.828 56.6642L101.765 57.6759C101.71 57.7279 101.624 57.7248 101.574 57.6698C101.55 57.6423 101.534 57.6056 101.537 57.569C101.762 55.0197 102.628 52.7089 104.139 50.6395C105.46 48.8239 108.558 45.8925 110.994 46.4855C113.879 47.1885 112.321 53.4241 111.862 55.3682Z" fill="#1B0302"/>
<path d="M133.848 90.4006C132.97 95.1446 129.093 98.0484 124.225 96.8196C122.433 96.3672 120.779 95.6122 119.261 94.5577C118.901 94.307 118.295 94.1389 117.438 94.0503C117.229 93.873 117.087 93.6712 117.017 93.445C116.986 93.3503 117.023 93.2464 117.106 93.1913C119.514 91.5469 120.601 88.6002 120.462 85.782C120.388 84.2445 120.167 82.8201 119.797 81.5027C119.773 81.411 119.828 81.3162 119.92 81.2948C119.973 81.2826 120.028 81.2948 120.071 81.3254C122.014 82.9057 122.596 86.2833 122.695 88.6889C122.775 90.639 122.448 92.4914 121.719 94.2459C121.7 94.2826 121.719 94.3254 121.753 94.3437C121.78 94.359 121.817 94.3529 121.839 94.3284C122.328 93.8577 122.698 93.2922 122.947 92.632C124.241 89.2146 124.191 84.6938 121.722 81.8664C121.635 81.7717 121.645 81.6249 121.74 81.5394C121.793 81.4935 121.86 81.4721 121.928 81.4813C123.243 81.6372 124.601 82.0223 125.996 82.6306C126.082 82.6673 126.184 82.6306 126.22 82.545C126.227 82.5328 126.23 82.5205 126.233 82.5083L126.251 82.4074C126.264 82.3585 126.239 82.3066 126.196 82.2821C124.505 81.3009 122.689 80.6407 120.749 80.3014C120.644 80.2831 120.545 80.2403 120.459 80.1791C120.247 80.0232 120 79.7634 119.72 79.3966C119.052 78.5224 118.535 77.7063 118.174 76.9452C118.134 76.8565 118.165 76.7526 118.248 76.7007C118.698 76.4286 119.234 76.2483 119.856 76.1657C120.216 76.1168 120.746 76.2727 121.448 76.6365C121.848 76.8413 122.652 77.257 123.859 77.8775C124.89 78.4093 126.119 79.2469 127.545 80.39C130.827 83.0218 132.927 86.3597 133.848 90.4006Z" fill="#5C7259"/>
<path d="M41.3311 81.0258C41.8022 81.8297 42.6644 83.1563 43.9207 85.0086C46.4211 88.6919 49.0846 92.8368 49.3433 97.0336C49.3495 97.1283 49.2817 97.2108 49.1893 97.2261L48.7582 97.3025C46.7413 97.541 44.8137 98.0942 42.9816 98.9654C42.9446 98.9837 42.9261 99.0296 42.9415 99.0693L42.9508 99.0876C42.96 99.1151 42.9908 99.1274 43.0185 99.1182C45.1771 98.406 47.1355 98.2043 48.8999 98.5069C51.5203 98.9562 53.6573 100.194 55.3109 102.221C55.4587 102.401 55.4926 102.649 55.4002 102.863C53.6727 106.848 53.3063 110.981 54.307 115.26L51.4033 114.747C50.3625 112.302 50.729 108.951 51.5696 106.454C52.0715 104.959 52.7428 103.477 53.5834 102.007C53.6111 101.958 53.5927 101.894 53.5434 101.866C53.5064 101.845 53.4603 101.851 53.4264 101.875C53.0753 102.157 52.7859 102.502 52.555 102.912C51.003 105.675 50.1624 108.612 50.03 111.727C48.7952 111.742 47.8068 111.644 47.0616 111.437C42.7044 110.22 39.2249 107.772 36.6168 104.091C36.0964 102.52 35.8716 100.796 35.9424 98.9226C36.1518 93.5642 37.4266 88.4719 39.7668 83.6515C40.1795 82.8017 40.6999 81.9275 41.3311 81.0258Z" fill="#5C7259"/>
<path d="M84.5094 80.1761C76.7712 82.1568 69.9261 86.2741 64.134 91.6385C64.0324 91.7302 63.8815 91.7486 63.7583 91.6844C61.1317 90.2569 59.161 88.3985 56.8731 86.0387C56.8454 86.0112 56.7962 86.0082 56.7684 86.0387C56.75 86.0571 56.7407 86.0877 56.75 86.1121C56.7777 86.1946 56.7869 86.2619 56.7838 86.32C56.7099 86.9405 56.7253 87.3959 56.83 87.6863C57.1226 88.4902 57.2981 89.3277 57.3566 90.1989C55.1303 89.1382 53.3751 88.0653 52.0941 86.9802C49.3628 84.6663 47.426 81.8481 46.2836 78.5316C46.2682 78.4918 46.2528 78.4613 46.2313 78.446C46.2189 78.4368 46.1974 78.4368 46.1881 78.4521C46.182 78.4582 46.1789 78.4674 46.182 78.4766L46.4807 79.8612C45.7447 79.8735 45.1597 79.6412 44.7255 79.1613C44.008 78.3665 43.4137 77.4342 42.9457 76.3675C42.3576 75.0256 42.0127 74.1942 41.9111 73.8732C41.8926 73.8243 41.8402 73.7999 41.7941 73.8182C41.7602 73.8304 41.7386 73.861 41.7325 73.8946L41.714 74.133C41.7048 74.2461 41.637 74.347 41.5323 74.3929L41.3014 74.4937C41.4492 72.8431 41.8249 71.3117 42.4253 69.8965C42.4315 69.8751 42.4222 69.8537 42.4007 69.8445C42.3853 69.8384 42.3668 69.8445 42.3576 69.8568C41.1536 71.3759 40.3776 73.1152 40.0297 75.0714C40.0173 75.1356 39.9588 75.1754 39.8942 75.1662C39.8572 75.1601 39.8233 75.1356 39.8079 75.099C38.8657 73.0021 38.6625 71.0978 38.7394 68.8053C38.8472 65.4705 40.1867 62.585 41.791 59.8309C41.8218 59.782 41.8834 59.7698 41.9295 59.7973C41.9573 59.8156 41.9757 59.8432 41.9788 59.8768C42.0712 61.7444 42.1482 63.4042 43.1951 65.015C44.1712 66.5128 45.56 67.0569 47.3675 66.6442C47.5153 66.6106 47.9649 66.5067 48.7162 66.3386C48.7932 66.3202 48.8702 66.3691 48.8886 66.4486C48.8886 66.4547 48.8886 66.4608 48.8886 66.4639C49.135 69.1446 50.3667 71.1773 52.5837 72.565C52.7531 73.106 53.0425 73.5339 53.4582 73.8457C55.4013 75.2976 57.6183 76.0679 60.1156 76.1535C60.7684 76.1749 61.4643 76.0587 62.2002 75.8081C65.8245 74.5701 68.057 72.1737 68.9007 68.6127L69.7967 67.1486C69.8583 67.0508 69.9753 67.0019 70.0893 67.0294C74.936 68.2612 77.4579 68.897 77.655 68.9398C79.6719 69.383 81.4147 69.5297 82.8835 69.3861C85.0575 69.169 87.3484 68.0747 89.002 66.5709C91.7364 64.0797 93.0912 60.8549 93.0666 56.8996C93.0604 55.9153 93.0143 55.0075 92.925 54.173C92.7002 52.0212 92.6663 50.9238 92.4508 48.6405C92.423 48.3532 92.4415 47.7602 92.5062 46.8615L94.3661 49.6247C94.3876 49.6522 94.4061 49.6828 94.4215 49.7134L95.1235 51.1011C95.1451 51.1439 95.1974 51.1622 95.2436 51.1439C95.2713 51.1317 95.2898 51.1042 95.2929 51.0705C95.4438 49.8051 95.3606 48.5671 95.0435 47.3597C95.0219 47.2772 95.0712 47.1947 95.1513 47.1733C95.1728 47.1672 95.1913 47.1672 95.2128 47.1733L95.3114 47.1886C95.4592 47.213 95.5731 47.3353 95.5793 47.4851L95.684 50.2697C95.684 50.288 95.684 50.3064 95.6901 50.3278C96.2629 52.6569 96.7771 54.2861 96.851 55.9001C96.9588 58.1681 96.888 60.4514 96.6385 62.747C96.5 64.0491 96.0011 65.9015 95.8718 67.1333C95.7579 68.2184 95.6563 69.7406 95.567 71.6969C95.567 71.7244 95.5423 71.7458 95.5115 71.7458C95.4807 71.7397 95.4623 71.7122 95.4623 71.6847L95.3791 69.9149C95.3791 69.8843 95.373 69.8537 95.3637 69.8262C94.674 67.6407 94.4307 66.2774 93.5962 65.3665C93.547 65.3115 93.4638 65.3085 93.4084 65.3543C93.3838 65.3757 93.3684 65.4093 93.3653 65.443C93.1528 67.7232 92.7156 69.9301 92.0597 72.0637C91.8565 72.7239 91.4808 73.5492 91.0497 74.1606C89.7749 75.967 88.7618 77.2784 88.1152 78.6355C88.0628 78.7425 87.9335 78.7883 87.8288 78.7364C87.7919 78.718 87.758 78.6905 87.7364 78.6539C87.681 78.5591 87.6625 78.4368 87.6779 78.2901C87.9212 76.0007 88.069 73.8763 88.1152 71.9109C88.1152 71.8283 88.0505 71.7611 87.9674 71.758C87.9304 71.758 87.8965 71.7702 87.8688 71.7916C87.7364 71.8986 87.6194 72.0698 87.524 72.3021C86.9143 73.754 85.9967 75.7928 84.7711 78.4215C84.6849 78.608 84.4817 78.9289 84.1583 79.3844C84.0844 79.4914 84.0844 79.635 84.1645 79.739L84.5063 80.1791L84.5094 80.1761Z" fill="#FFD8A1"/>
<path d="M114.203 10.5361C115.306 12.4129 114.976 13.6295 113.218 14.1858C110.363 15.0906 107.284 14.7604 104.347 13.6784C103.478 13.3574 102.089 12.8195 100.18 12.0583C96.6361 10.6462 92.864 9.7903 88.8703 9.49381C86.6902 9.3318 84.2699 9.35626 81.6125 9.57022L80.4701 9.47547C80.3993 9.47241 80.3407 9.52437 80.3377 9.59162C80.3346 9.64358 80.3623 9.68943 80.4085 9.71389L84.3314 11.4012C84.5193 11.8841 84.6147 12.3946 84.6178 12.9295C84.6178 13.0273 84.5747 13.1221 84.5008 13.1863C83.5616 13.9871 82.5024 14.4211 81.3261 14.4884C80.7503 14.519 80.2822 14.5618 79.9158 14.6168C79.8573 14.6259 79.8142 14.6779 79.8234 14.736C79.8296 14.7757 79.8573 14.8093 79.8973 14.8246C81.4092 15.3259 83.2876 15.7966 84.5809 16.8267C84.8734 17.0621 84.9288 17.3525 84.7441 17.704C84.7133 17.7682 84.6548 17.814 84.587 17.8385L82.8011 18.4559C82.6687 18.5048 82.604 18.6485 82.6502 18.7769C82.6779 18.8533 82.7395 18.9114 82.8195 18.9328C85.0582 19.5227 87.0012 20.2838 88.6516 21.2161C89.1874 21.5187 89.597 21.8641 89.8772 22.2462C90.0311 22.4541 89.9849 22.7475 89.7725 22.9003C89.7478 22.9187 89.7232 22.9339 89.6986 22.9462C88.7656 23.3833 87.7217 23.6186 86.567 23.6492C86.4038 23.6553 86.3022 23.7134 86.2683 23.8234C86.2129 23.9916 86.2991 24.1719 86.4592 24.2269C88.5562 24.9544 90.9703 26.2535 91.2906 28.6591C91.5184 30.3891 89.6278 31.9083 88.2575 32.5105C87.5862 32.807 86.8133 32.9048 86.1605 33.0637C86.0681 33.0851 86.0096 33.1738 86.0281 33.2685C86.0404 33.3327 86.0897 33.3816 86.1544 33.3969C86.7979 33.5711 89.9726 34.5401 89.9942 35.616C90.025 36.9762 84.8888 37.7893 83.7895 37.9391C80.2576 38.419 75.7157 37.9819 71.6757 37.4653C70.3979 37.3033 68.5657 37.1566 66.1793 37.0252C63.0939 36.857 60.8368 36.747 59.408 36.6981C56.1409 36.585 52.5013 36.7898 48.4829 37.3155C46.8385 37.5326 44.9202 38.2998 43.2173 38.6452C42.854 38.7185 42.6569 38.4985 42.623 37.9849C43.5006 36.8509 44.8986 36.0134 46.8201 35.4724C48.9601 34.8702 50.7369 34.4942 52.1472 34.3445C55.0232 34.0357 57.9146 33.9165 60.8183 33.9868C60.8491 33.9868 60.8737 33.9624 60.8737 33.9318V33.8523C60.8737 33.8523 60.8645 33.834 60.8553 33.8309C60.0054 33.6689 59.2602 33.565 58.6197 33.5192C54.1795 33.1921 49.8716 33.6659 45.6992 34.9466C45.573 34.9864 45.4406 34.9191 45.4005 34.7938C45.3851 34.7449 45.3851 34.6929 45.4005 34.644C48.2396 26.498 52.9693 18.7219 59.873 13.3666C62.2964 11.4867 64.8521 9.79642 67.5372 8.2956C76.2053 3.44467 85.7417 2.93115 95.5584 3.59751C98.1357 3.77174 100.938 4.26386 103.968 5.07082C106.964 5.86861 109.667 7.0821 112.072 8.7113C112.898 9.27067 113.606 9.87895 114.2 10.5361H114.203Z" fill="#C82904"/>
<path d="M69.8338 65.6538C69.5875 65.6355 69.3966 65.7089 69.2426 65.9167C65.8339 70.5384 59.3151 74.94 53.4584 71.703C51.3091 70.5139 50.1728 68.6983 50.0527 66.2621C50.2252 66.0909 50.3237 65.9075 50.3453 65.7089C50.3668 65.5255 50.5393 65.4063 50.7302 65.4429C50.841 65.4643 50.9365 65.5316 50.995 65.6263C52.0419 67.4389 53.3999 68.3437 55.5492 68.4782C57.5661 68.6066 59.5799 68.1695 61.5845 67.1669C63.4813 66.2193 66.7084 63.9574 69.2457 64.3548C69.9816 64.4679 70.1787 64.9019 69.8338 65.6538Z" fill="#C82904"/>
<path d="M112.182 69.9882C112.468 69.6153 112.757 69.2607 113.044 68.9275C113.795 68.0625 114.205 67.0783 114.984 66.3233C117.148 64.2172 119.624 62.426 122.405 60.9558C122.479 60.916 122.519 60.8305 122.494 60.7479L122.365 60.2925C122.996 60.8977 123.566 61.5396 124.071 62.2182C124.197 62.3894 124.262 62.5238 124.258 62.6217C124.252 62.9548 124.009 63.236 123.683 63.2911C121.062 63.7312 118.657 64.8286 116.468 66.58C115.058 67.7079 113.629 68.842 112.182 69.9882Z" fill="#631402"/>
<path d="M115.375 72.9776C118.587 71.0886 121.155 69.6183 124.554 68.9275C125.58 68.7197 126.485 68.5821 127.276 68.5149C129.038 68.3682 130.556 67.9097 131.935 67.3106C132.089 67.2433 132.182 67.0874 132.163 66.9224L132.046 65.822C133.093 66.6809 133.604 67.6774 133.13 69.0162C133.084 69.1446 133.001 69.2577 132.893 69.3402C132.148 69.9057 131.578 70.2602 131.187 70.4039C129.866 70.8807 127.698 71.6052 126.057 71.9689C124.474 72.3204 123.227 72.8676 121.798 73.2191C120.308 73.5859 118.858 74.0811 117.45 74.7046C117.161 74.8299 116.825 74.7505 116.625 74.509L115.375 72.9776Z" fill="#631402"/>
<path d="M119.255 99.919L115.535 96.5383C115.464 96.4711 115.369 96.4344 115.27 96.4344C108.899 96.3977 103.991 93.7751 100.539 88.5696C99.7232 87.3378 98.8734 85.9134 97.9927 84.2903C97.7248 83.7982 96.9304 82.8567 95.6094 81.4598C96.721 81.8694 97.4846 82.2332 97.8973 82.5541C99.7787 84.0091 101.303 86.4636 102.71 88.4718C103.317 89.3369 104.281 90.3639 105.605 91.556C107.052 92.8581 109.786 94.3528 111.945 94.4109C112.995 94.4384 113.937 94.4109 114.772 94.3162C115.135 94.2795 115.489 94.4201 115.723 94.6982C117.041 96.2694 118.217 98.0086 119.255 99.919Z" fill="#631402"/>
<path d="M121.37 116.116C120.191 121.41 116.046 125.534 111.224 127.695C107.082 129.55 102.707 130.535 98.0941 130.645C92.6654 130.773 87.2983 130.431 81.9989 129.205C81.2999 129.043 80.0897 128.688 78.3654 128.141C74.3223 126.86 70.5071 125.149 67.4895 122.593C65.568 120.964 64.1639 119.888 63.0276 118.128C62.8644 117.871 62.8737 117.541 63.0584 117.299L64.1546 115.866C64.2932 115.685 64.5303 115.615 64.7458 115.685C66.5595 116.287 68.3085 116.407 69.996 116.04C70.2269 116.7 70.7689 117.363 71.6249 118.027C73.5925 119.549 75.8742 120.775 78.47 121.704C80.4993 122.428 82.1313 122.914 83.3691 123.159C86.8271 123.84 90.5099 124.137 94.4205 124.042C95.9879 124.002 97.4906 123.773 98.9932 123.639C103.735 123.22 108.893 121.135 112.348 117.721C112.443 117.623 112.453 117.473 112.369 117.366L111.981 116.871C115.338 116.413 117.413 113.818 118.017 110.62C118.429 110.165 118.805 110.055 119.147 110.293C119.187 110.321 119.212 110.367 119.212 110.416V115.753C119.212 115.808 119.236 115.86 119.276 115.896C119.984 116.535 120.683 116.608 121.37 116.116Z" fill="#631402"/>
<path d="M89.6569 133.283C89.5799 133.133 89.6384 132.949 89.7893 132.873C89.8355 132.848 89.8909 132.836 89.9433 132.839C92.6376 132.965 95.1257 133.026 97.4074 133.023C102.645 133.017 107.609 131.947 112.302 129.81C112.459 129.737 112.647 129.807 112.717 129.963C112.727 129.981 112.733 130.003 112.739 130.021C113.17 131.773 112.85 133.338 111.778 134.716C111.406 135.196 111.199 135.456 111.165 135.492C110.045 136.718 108.557 137.687 106.707 138.405C105.179 139.002 103.988 139.35 103.135 139.454C101.709 139.625 99.1625 139.705 97.4751 139.243C93.9371 138.268 91.3074 136.483 89.6569 133.283Z" fill="#A23403"/>
<path d="M52.8531 135.725C54.559 138.259 52.6775 141.315 50.3004 142.618C47.8554 143.042 45.7954 142.651 44.1172 141.444C42.1927 140.059 40.6993 138.302 39.6308 136.168C39.5907 136.089 39.6215 135.991 39.7016 135.951C39.7355 135.936 39.7724 135.93 39.8094 135.936C41.8263 136.348 43.8617 136.59 45.9124 136.654C47.5444 136.706 49.857 136.394 52.8531 135.725Z" fill="#892B04"/>
<path d="M107.805 139.381C108.418 139.854 108.969 140.291 109.459 140.695C110.78 141.78 111.153 143.11 110.574 144.678C108.129 145.683 105.973 146.197 104.107 146.218C99.8209 146.267 97.2344 143.837 95.0204 140.542C94.9711 140.463 94.9927 140.359 95.0727 140.31C95.1128 140.285 95.162 140.276 95.2051 140.288C98.5215 141.135 101.853 141.101 105.2 140.181C106.112 139.931 106.98 139.665 107.805 139.381Z" fill="#892B04"/>
<path d="M51.1878 143.975C52.4534 144.363 53.6112 144.919 54.6612 145.644C56.1978 146.704 56.2655 148.052 56.207 149.88C56.1238 152.5 54.1347 154.777 51.8406 155.639C50.9292 155.984 49.5373 156.308 47.6682 156.614C46.5967 156.687 45.3773 156.892 44.4381 156.898C42.7291 156.907 41.0325 156.745 39.3512 156.406C38.1688 156.165 36.8847 155.63 35.499 154.798C32.4352 152.958 32.6046 148.639 35.382 146.613C39.6006 143.531 45.4358 144.393 49.953 146.133C50.5381 146.359 51.0185 146.536 51.391 146.661C51.4465 146.68 51.505 146.649 51.5235 146.597C51.5388 146.558 51.5235 146.515 51.4927 146.487C51.2679 146.292 51.0215 146.13 50.7598 145.998C49.4203 145.329 48.0809 144.794 46.7475 144.4C46.6644 144.378 46.6182 144.293 46.6398 144.21C46.6582 144.143 46.7198 144.097 46.7906 144.097L51.1878 143.975Z" fill="#892B04"/>
<path d="M112.559 146.001C113.662 147.258 115.192 147.789 116.258 148.688C118.204 150.33 118.487 153.527 118.647 155.954C116.273 157.702 113.631 158.958 110.721 159.726C107.463 160.582 103.205 160.496 100.212 158.735C98.8014 157.907 98.1394 156.697 98.2287 155.104C98.2656 154.484 98.3826 153.643 98.7275 153.001C99.4511 151.653 100.415 150.663 101.625 150.036C103.543 149.043 105.523 148.529 107.565 148.489C109.16 148.456 110.998 148.551 112.439 149.195C113.166 149.516 113.569 149.691 113.653 149.718C113.739 149.743 113.831 149.694 113.856 149.608C113.874 149.544 113.853 149.474 113.797 149.434C112.329 148.373 110.586 147.78 108.575 147.661C108.473 147.655 108.396 147.566 108.402 147.465C108.406 147.41 108.433 147.361 108.476 147.331C108.633 147.218 108.849 147.138 109.12 147.093C110.336 146.885 111.482 146.521 112.559 146.001Z" fill="#892B04"/>
<path d="M41.3317 46.2991C41.3286 46.2685 41.3009 46.2471 41.2701 46.2501C41.2393 46.2532 41.2178 46.2777 41.2208 46.3082C41.267 48.2125 41.7813 49.9793 42.7635 51.6115C42.9113 51.8561 42.9606 52.1464 42.899 52.4246C42.5634 53.9621 42.3109 55.1481 42.1385 55.9795C41.9999 56.6397 41.6673 57.0035 41.1377 57.0677C41.0392 57.0799 40.9406 57.0524 40.8606 56.9943C40.6142 56.814 40.4018 56.5755 40.2201 56.279C38.2432 52.984 36.6974 47.4728 38.4618 43.7743C39.3825 41.8394 40.9252 41.0691 43.0899 41.4634C43.1392 41.4726 43.1731 41.5154 43.17 41.5643C43.0314 44.7402 43.1084 47.5064 43.4009 49.8662C43.4194 50.0221 43.3671 50.2513 43.2439 50.5539C43.2008 50.6609 43.0776 50.7159 42.9668 50.6731C42.9206 50.6548 42.8836 50.6242 42.8621 50.5814C42.0769 49.2273 41.5688 47.7999 41.3348 46.2991H41.3317Z" fill="#DE5D24"/>
<path d="M111.863 55.3682C111.447 57.248 110.766 59.1707 109.815 61.1361C108.907 60.8396 108.047 60.968 107.238 61.5243C106.101 62.3068 105.048 62.86 104.081 63.1871L102.828 56.6642C103.182 56.1354 103.65 55.8725 104.226 55.8756C104.623 55.8786 104.974 56.1629 105.085 56.5664C105.332 57.4711 105.452 58.4462 105.442 59.4885C105.442 59.5344 105.482 59.5741 105.532 59.5711C105.566 59.5711 105.596 59.5497 105.606 59.5191C105.883 58.7458 106.04 57.8777 106.074 56.9118C106.123 55.576 105.221 54.3992 103.749 54.7843C103.66 54.8088 103.567 54.7538 103.543 54.6621C103.53 54.6193 103.536 54.5734 103.558 54.5368C104.876 52.2473 106.203 50.2605 108.531 48.9889C109.538 48.4357 111.056 48.1697 111.659 49.4046C111.94 49.9793 112.038 50.7679 111.955 51.7674C111.86 52.9106 111.829 54.1119 111.863 55.3682Z" fill="#DE5D24"/>
<path d="M118.584 82.7375C119.216 85.1462 119.326 87.781 118.261 90.0307C117.337 91.9809 114.966 92.7358 112.875 92.5463C109.679 92.2559 106.988 90.8591 104.799 88.3495C103.976 87.405 103.237 86.4666 102.578 85.5313C101.636 84.1894 100.885 83.2541 100.321 82.7253C99.0311 81.5148 97.6054 80.6437 96.0473 80.1118C95.0527 79.7725 93.7102 79.6411 92.5801 79.476C92.7464 79.4608 92.925 79.3691 93.1128 79.2009C93.1836 79.1368 93.276 79.1031 93.3714 79.1031C97.1096 79.0634 100.327 80.1791 103.022 82.4502C105.267 84.3392 106.966 87.136 109.211 88.7011C109.882 89.1687 110.683 89.4285 111.616 89.4805C113.334 89.5753 114.806 89.0434 116.035 87.891C116.118 87.8116 116.189 87.7229 116.25 87.6282C117.174 86.1457 117.953 84.5165 118.584 82.7375Z" fill="#DE5D24"/>
<path d="M56.2109 116.483C57.2671 116.529 58.0492 116.333 58.5542 115.896C60.528 114.181 62.9021 111.583 65.6735 112.421C66.7789 112.754 67.8566 112.995 68.9067 113.148C69.1007 113.176 69.2823 113.044 69.3131 112.852C69.3162 112.821 69.3193 112.791 69.3131 112.76L69.0914 110.792C70.2893 111.571 71.8135 113.622 69.852 114.502C68.531 115.095 67.2408 115.108 65.9783 114.539C65.7227 114.426 65.5688 114.27 65.5133 114.071C65.4826 113.97 65.3994 113.891 65.2978 113.864C64.1616 113.564 62.9021 114.695 62.1878 115.514C61.3995 116.416 60.7159 117.116 60.1401 117.614C60.0846 117.66 60.0384 117.718 60.0046 117.782C59.8414 118.091 59.6104 118.238 59.3087 118.228C58.2032 118.192 57.1717 117.611 56.2109 116.483Z" fill="#DE5D24"/>
<path d="M48.7593 97.3025L49.1904 97.2261C49.2828 97.2108 49.3505 97.1283 49.3444 97.0335C49.0857 92.8367 46.4221 88.6919 43.9218 85.0086C42.6655 83.1563 41.8033 81.8297 41.3322 81.0258C41.3291 80.8944 41.3845 80.8302 41.4984 80.8332C41.8433 80.8424 42.1574 81.0105 42.4376 81.3315C43.3768 82.4166 44.396 83.3794 45.4953 84.2231C46.1543 84.7305 47.1889 85.189 48.6023 85.5986C48.7131 85.6291 48.8178 85.678 48.9133 85.7453C49.9479 86.4544 50.3513 87.7229 51.2689 88.5819C54.0556 91.2014 57.3442 92.6136 61.1102 93.2677C61.7722 93.3839 62.4435 93.4175 63.124 93.3655C63.1733 93.3625 63.2194 93.3992 63.2225 93.4481C63.2225 93.4695 63.2194 93.4878 63.2071 93.5061C62.2002 94.9886 61.3534 96.4864 60.6729 97.9994C60.559 98.2501 60.3557 98.4518 60.1032 98.5649C58.81 99.1335 57.606 99.974 56.4913 101.084C56.3342 101.243 56.0756 101.243 55.9155 101.084C55.9124 101.081 55.9093 101.078 55.9062 101.074C55.6199 100.772 55.3889 100.445 55.2072 100.09C53.6245 97.003 52.1803 93.7537 50.8747 90.3456C50.8439 90.2722 50.7577 90.2386 50.6869 90.2691C50.6284 90.2936 50.5914 90.3547 50.5976 90.4189C51.0533 93.1699 51.9063 95.7956 53.1565 98.2929C53.2334 98.4488 53.2704 98.5741 53.2673 98.675C53.2673 98.733 53.218 98.7789 53.1595 98.7758C53.1349 98.7758 53.1134 98.7667 53.0949 98.7544C51.7554 97.7243 50.7516 97.2078 48.7593 97.3025Z" fill="#484C38"/>
<path d="M117.438 94.0502C118.294 94.1389 118.9 94.307 119.26 94.5576C120.778 95.6122 122.432 96.3672 124.224 96.8196C129.092 98.0483 132.969 95.1445 133.847 90.4006C134.053 91.6141 134.084 92.8306 133.939 94.0533C133.293 99.4697 128.273 102.306 123.497 103.41C123.239 103.471 122.977 103.309 122.915 103.049C122.915 103.049 122.915 103.046 122.915 103.043C122.771 102.404 122.666 101.891 122.352 101.282C121.019 98.6872 119.381 96.2785 117.438 94.0502Z" fill="#484C38"/>
<path d="M50.0304 111.727C50.0889 113.185 50.3537 114.548 50.8248 115.823C50.8741 115.957 50.8064 116.104 50.6709 116.153C50.6339 116.165 50.5939 116.171 50.5569 116.165C48.6478 115.954 46.7787 115.346 45.1344 114.334C41.002 111.791 37.892 108.808 36.6172 104.091C39.2253 107.772 42.7049 110.22 47.062 111.437C47.8072 111.644 48.7956 111.742 50.0304 111.727Z" fill="#484C38"/>
<path d="M54.3077 115.26C54.5817 115.804 54.8558 116.342 55.1237 116.874C55.2407 117.104 55.293 117.266 55.2838 117.357C55.2715 117.458 55.33 117.556 55.4223 117.596C55.8935 117.791 56.4385 118.525 56.9928 118.879C58.0797 119.567 59.2098 119.787 60.383 119.534C60.7556 119.454 61.1405 119.616 61.3407 119.94C61.6301 120.411 61.9011 120.778 62.1536 121.041C65.55 124.608 69.4699 127.212 73.9194 128.85C73.9748 128.875 73.9994 128.936 73.9748 128.991C73.9594 129.028 73.9225 129.052 73.8824 129.055C73.0757 129.064 72.195 128.982 71.2404 128.808C67.1974 128.071 63.8256 127.276 60.4292 125.421C58.2737 124.244 56.8758 123.428 56.2322 122.978C54.3939 121.692 53.1375 120.909 52.4632 120.631C49.8181 119.534 47.1638 118.076 44.5064 116.257C44.4571 116.217 44.4479 116.147 44.4879 116.098C44.5187 116.061 44.568 116.046 44.6142 116.061C47.2069 117.137 49.852 117.755 52.5525 117.911C53.1068 117.944 53.5994 117.923 54.0336 117.846C54.2338 117.81 54.3631 117.62 54.3261 117.421C54.2984 117.275 54.1814 117.159 54.0336 117.131C52.5525 116.88 51.7765 116.226 51.4039 114.747L54.3077 115.26Z" fill="#484C38"/>
<path d="M84.5081 80.176L84.1663 79.7359C84.0862 79.632 84.0862 79.4883 84.1602 79.3813C84.4835 78.9259 84.6867 78.6049 84.7729 78.4185C85.9985 75.7897 86.9161 73.7509 87.5258 72.299C87.6212 72.0667 87.7382 71.8956 87.8706 71.7886C87.9353 71.7366 88.0308 71.7458 88.0831 71.81C88.1047 71.8375 88.117 71.8711 88.117 71.9078C88.0708 73.8732 87.923 75.9976 87.6797 78.287C87.6643 78.4338 87.6797 78.556 87.7382 78.6508C87.7998 78.7516 87.9322 78.7853 88.0338 78.7241C88.0708 78.7027 88.0985 78.6722 88.117 78.6324C88.7636 77.2753 89.7767 75.964 91.0515 74.1575C91.4826 73.5462 91.8583 72.7209 92.0615 72.0606C92.7174 69.9271 93.1546 67.7202 93.3671 65.4399C93.3733 65.3665 93.4379 65.3146 93.5087 65.3207C93.5426 65.3207 93.5734 65.339 93.598 65.3635C94.4325 66.2744 94.6758 67.6376 95.3655 69.8231C95.3748 69.8506 95.3809 69.8812 95.3809 69.9118L95.4641 71.6816C95.4641 71.7091 95.4825 71.7366 95.5133 71.7427C95.5441 71.7427 95.5657 71.7213 95.5688 71.6938C95.6581 69.7376 95.7597 68.2153 95.8736 67.1302C96.0029 65.8984 96.5018 64.046 96.6403 62.7439C96.8898 60.4484 96.9606 58.165 96.8528 55.897C96.7789 54.2831 96.2647 52.6539 95.6919 50.3247C95.6889 50.3033 95.6858 50.285 95.6858 50.2666L95.5811 47.482C95.5749 47.3322 95.461 47.21 95.3132 47.1855L95.2146 47.1702C95.1315 47.158 95.0545 47.213 95.0422 47.2955C95.0391 47.3169 95.0422 47.3383 95.0453 47.3597C95.3624 48.5671 95.4456 49.8051 95.2947 51.0705C95.2916 51.1194 95.2454 51.1561 95.1992 51.15C95.1685 51.15 95.1407 51.1286 95.1253 51.1011L94.4233 49.7134C94.4079 49.6828 94.3894 49.6522 94.3679 49.6247L92.508 46.8615C92.5234 46.4244 92.6188 45.9751 92.7944 45.5196C92.819 45.4554 92.8929 45.4249 92.9576 45.4493L99.3932 47.8977C99.4794 47.9313 99.5225 48.0291 99.4886 48.1178C99.4825 48.1331 99.4763 48.1453 99.4671 48.1575C97.5826 50.7098 97.3701 53.9805 97.7951 57.1288C98.1184 59.5314 98.648 61.9736 99.3778 64.4587C99.4086 64.5687 99.3839 64.6849 99.3131 64.7735C98.8697 65.3176 98.4294 65.8434 98.2446 66.3905C97.7242 67.9433 98.1984 69.169 99.6672 70.0707C99.7134 70.0982 99.7257 70.1594 99.698 70.2052C99.6888 70.2174 99.6796 70.2266 99.6672 70.2358C98.6726 70.8502 97.678 71.5532 96.6834 72.3388C96.046 72.8431 95.2146 73.7173 94.1893 74.9675C92.3787 77.1714 91.2055 78.608 90.6728 79.2713C90.5465 79.4272 90.3587 79.5219 90.1554 79.528C88.1724 79.58 86.291 79.794 84.5081 80.176Z" fill="#E6AC77"/>
<path d="M68.9029 68.6127C68.0592 72.1737 65.8267 74.5702 62.2024 75.8081C61.4665 76.0588 60.7706 76.1749 60.1178 76.1535C57.6205 76.0679 55.4034 75.2976 53.4604 73.8457C53.0447 73.534 52.7553 73.106 52.5859 72.565C53.9254 73.2833 55.0617 73.6898 55.9977 73.7877C59.5235 74.1514 62.692 73.372 65.5034 71.4432C66.4118 70.8196 67.5449 69.8751 68.9029 68.6127Z" fill="#E6AC77"/>
<path d="M46.4801 79.8612C46.8527 81.4018 47.4624 82.8109 48.3091 84.0886C48.3461 84.1405 48.3338 84.2139 48.2814 84.2506C48.2414 84.2781 48.186 84.2781 48.1459 84.2506C46.9112 83.4558 45.818 82.6061 44.8604 81.7013C42.671 79.6258 41.4825 77.2233 41.3008 74.4937L41.5317 74.3928C41.6364 74.347 41.7042 74.2461 41.7134 74.133L41.7319 73.8946C41.738 73.8457 41.7842 73.809 41.8335 73.8121C41.8674 73.8151 41.8982 73.8396 41.9105 73.8732C42.0121 74.1941 42.357 75.0256 42.9451 76.3674C43.4131 77.4342 44.0074 78.3665 44.7249 79.1612C45.1591 79.6411 45.7441 79.8734 46.4801 79.8612Z" fill="#E6AC77"/>
<path d="M56.7842 86.3199C58.062 88.4321 59.0659 89.7709 60.7225 91.2014C60.7564 91.2259 60.7656 91.2748 60.741 91.3084C60.7194 91.339 60.6794 91.3482 60.6455 91.3329L57.3569 90.1989C57.2984 89.3277 57.1229 88.4902 56.8303 87.6863C56.7256 87.3959 56.7103 86.9404 56.7842 86.3199Z" fill="#E6AC77"/>
<path d="M70.9976 108.97C71.6289 107.072 71.2901 105.415 69.9876 103.994C69.8799 103.877 69.9137 103.728 70.0831 103.547C70.197 103.404 70.2586 103.275 70.2709 103.165C70.7513 99.4391 72.5773 96.6117 75.7489 94.683C76.1985 94.4109 76.9036 94.2917 77.8643 94.3314C79.3455 94.3926 80.7096 95.3982 80.7527 96.9204C80.7927 98.3234 80.2169 99.7112 78.5079 99.1976C78.4032 99.1671 78.3293 99.0784 78.3139 98.9715C78.28 98.7116 78.3016 98.3907 78.3847 98.0055C78.4802 97.5654 78.4556 97.2597 78.3108 97.0916C77.6118 96.2663 75.949 97.4553 75.4194 98.03C73.4056 100.216 72.5711 102.658 72.9129 105.351C73.1716 107.39 73.6396 109.294 75.3886 110.504C75.6073 110.657 75.909 110.602 76.063 110.385C76.0876 110.348 76.1092 110.312 76.1215 110.272C76.6911 108.676 77.0268 106.928 77.1346 105.027C77.1376 104.953 77.0791 104.889 77.0052 104.886C77.0052 104.886 77.0052 104.886 77.0022 104.886C76.2755 104.868 75.5919 104.712 74.9545 104.421C74.508 104.217 74.2678 103.731 74.3786 103.254L74.548 102.523C74.6558 102.062 75.1207 101.774 75.5857 101.881C75.6442 101.894 75.7027 101.915 75.7581 101.939C76.8451 102.444 77.9382 102.777 79.0406 102.939C79.6657 103.031 79.9428 103.398 79.872 104.042C79.715 105.494 79.4132 107.221 78.9729 109.217C78.7388 110.275 78.4001 111.18 77.9598 111.929C77.036 113.503 75.1669 113.298 73.9106 112.237C72.7128 111.226 71.7397 110.134 70.9976 108.97Z" fill="#F07216"/>
<path d="M118.018 110.62C117.414 113.818 115.339 116.413 111.982 116.871C110.917 116.887 109.405 117.149 109.574 115.661C110.15 110.541 110.104 105.773 108.946 100.613C108.86 100.234 108.826 99.8151 108.841 99.3596C108.857 98.9775 109.122 98.6474 109.494 98.5496C110.92 98.1706 112.407 98.7758 113.657 99.5033C117.51 101.75 118.821 106.402 118.018 110.62Z" fill="#F07216"/>
<path d="M114.202 10.5361C116.025 12.364 114.766 14.9194 112.601 15.7202C110.516 16.4936 108.456 16.7992 106.415 16.6433C103.739 16.4385 100.324 15.6255 97.3925 14.6932C94.7997 13.8709 92.207 13.064 89.6143 12.2754C89.3279 12.1867 88.2348 11.878 86.338 11.3492C84.7491 10.906 83.1725 10.313 81.6113 9.57022C84.2687 9.35626 86.689 9.3318 88.8691 9.49381C92.8629 9.7903 96.635 10.6462 100.179 12.0583C102.088 12.8195 103.477 13.3574 104.345 13.6784C107.283 14.7604 110.362 15.0906 113.217 14.1858C114.975 13.6295 115.304 12.4129 114.202 10.5361Z" fill="#831602"/>
<path d="M42.6229 37.9849C42.6567 38.4985 42.8538 38.7185 43.2172 38.6452C44.92 38.2998 46.8384 37.5326 48.4827 37.3155C52.5011 36.7898 56.1408 36.585 59.4078 36.6981C60.8366 36.747 63.0937 36.857 66.1791 37.0251C68.5655 37.1566 70.3977 37.3033 71.6756 37.4653C75.7155 37.9819 80.2574 38.419 83.7893 37.9391C84.8886 37.7893 90.0248 36.9762 89.994 35.616C89.9724 34.5401 86.7977 33.5711 86.1542 33.3969C86.0618 33.3724 86.0064 33.2807 86.031 33.189C86.0464 33.1248 86.0988 33.079 86.1603 33.0637C86.8131 32.9048 87.586 32.807 88.2573 32.5105C89.6276 31.9083 91.5182 30.3891 91.2904 28.6591C90.9701 26.2535 88.556 24.9544 86.459 24.2269C86.2989 24.1719 86.2127 23.9915 86.2681 23.8234C86.302 23.7134 86.4036 23.6553 86.5668 23.6492C87.7215 23.6186 88.7654 23.3833 89.6984 22.9462C89.9355 22.8331 90.034 22.5519 89.9232 22.3195C89.9109 22.292 89.8955 22.2676 89.877 22.2462C89.5968 21.8641 89.1872 21.5187 88.6514 21.2161C87.001 20.2838 85.058 19.5227 82.8194 18.9328C82.6839 18.8961 82.6069 18.7585 82.6438 18.624C82.6654 18.5476 82.7239 18.4834 82.8009 18.4559L84.5868 17.8385C84.6546 17.814 84.7131 17.7682 84.7439 17.704C84.9286 17.3525 84.8732 17.0621 84.5807 16.8267C83.2874 15.7966 81.4091 15.3259 79.8972 14.8246C79.8417 14.8063 79.8079 14.7451 79.8263 14.6901C79.8386 14.6504 79.8725 14.6229 79.9156 14.6168C80.2821 14.5617 80.7501 14.5189 81.3259 14.4884C82.5022 14.4211 83.5615 13.9871 84.5006 13.1862C84.5745 13.1221 84.6176 13.0273 84.6176 12.9295C84.6176 12.3946 84.5191 11.8841 84.3313 11.4012C88.3558 12.7063 92.1248 14.0666 95.6413 15.4787C96.0848 15.656 96.4697 15.9372 96.793 16.3224C99.7583 19.8712 102.135 23.7776 103.918 28.0477C105.76 32.4524 107.139 36.9824 108.057 41.6315C108.094 41.821 107.992 42.0106 107.811 42.0839C105.036 43.1813 102.65 44.838 100.651 47.051C100.513 47.2038 100.288 47.2497 100.1 47.1641C98.465 46.406 96.134 45.5563 92.3312 44.1411C89.9417 43.2516 86.9979 42.356 83.4999 41.4512C79.6293 40.4486 74.955 39.5316 69.4801 38.6971C65.086 38.0277 60.698 37.7312 56.3101 37.8077C54.4964 37.8382 52.7505 38.0675 50.7736 38.2081C49.1108 38.3273 46.8969 38.7522 44.1348 39.4766C43.4481 39.6569 42.94 39.5286 42.6105 39.0945C42.4935 38.9417 42.4966 38.5718 42.6229 37.9849Z" fill="#831602"/>
<path d="M122.366 60.2925L122.496 60.7479C122.52 60.8304 122.48 60.916 122.406 60.9558C119.626 62.426 117.15 64.2172 114.985 66.3233C114.206 67.0782 113.797 68.0625 113.046 68.9275C112.759 69.2607 112.47 69.6153 112.183 69.9882C111.675 69.9026 111.22 69.6917 110.819 69.3524C110.708 69.2576 110.656 69.1079 110.69 68.9642L111.768 64.3548C111.786 64.2814 111.811 64.2111 111.845 64.1469L114.995 58.058C115.106 57.8471 115.34 57.7279 115.577 57.7677C117.162 58.0275 118.647 58.3973 120.035 58.8803C120.928 59.1921 121.704 59.6628 122.366 60.2925Z" fill="#831602"/>
<path d="M132.047 65.8219L132.164 66.9223C132.182 67.0874 132.09 67.2433 131.936 67.3105C130.556 67.9096 129.038 68.3681 127.277 68.5148C126.486 68.5821 125.58 68.7196 124.555 68.9275C121.156 69.6183 118.587 71.0886 115.376 72.9776L113.553 70.896C113.504 70.8379 113.497 70.7554 113.541 70.6912C113.925 70.1349 114.427 69.6336 115.04 69.1904C118.153 66.9254 120.293 65.5652 121.46 65.1067C122.436 64.7246 123.465 64.4036 124.543 64.1469C127.397 63.4714 129.876 63.8412 132.047 65.8219Z" fill="#831602"/>
<path d="M44.2669 117.807L46.9643 120.255C46.9643 120.255 46.9889 120.276 47.0012 120.286C49.1136 121.692 50.9981 123.828 50.7179 126.607C50.7025 126.744 50.6501 126.876 50.567 126.989L49.9204 127.836C49.8372 127.939 49.8588 128.092 49.9665 128.175C49.985 128.187 50.0035 128.199 50.022 128.208C52.2236 129.113 52.9904 131.329 51.7494 133.38C51.6755 133.506 51.577 133.616 51.46 133.707L50.0682 134.814C47.0259 135.575 42.2746 135.633 39.725 133.542C38.3547 132.421 37.6803 130.055 37.6372 128.477C37.511 123.828 39.26 120.081 42.8781 117.238C43.0475 117.107 43.2846 117.101 43.4601 117.226L44.2669 117.807Z" fill="#A23403"/>
<path d="M50.0669 134.814L51.4587 133.707C51.5758 133.616 51.6743 133.506 51.7482 133.38C52.9891 131.329 52.2224 129.113 50.0207 128.208C49.8945 128.156 49.836 128.013 49.8853 127.891C49.8945 127.869 49.9037 127.851 49.9191 127.836L50.5658 126.989C50.6489 126.876 50.7013 126.744 50.7166 126.607C50.9969 123.828 49.1124 121.692 47 120.286C46.9877 120.276 46.9754 120.267 46.963 120.255L44.2656 117.807C44.8938 118.131 45.5066 118.476 46.1009 118.84C46.8707 119.314 47.4834 119.653 47.9392 119.864C49.3957 120.536 50.8398 121.316 52.2686 122.199C54.9845 123.883 56.7889 124.904 60.4255 126.977C60.5302 127.038 60.5672 127.172 60.5025 127.279C60.4779 127.319 60.444 127.35 60.4009 127.368L54.7535 129.734C54.7197 129.743 54.6981 129.78 54.7074 129.813C54.7166 129.847 54.7535 129.868 54.7874 129.859L57.2631 129.572C57.568 129.535 57.842 129.752 57.879 130.055C57.879 130.061 57.879 130.07 57.879 130.076C57.9775 131.265 56.6226 132.592 55.6188 133.09C53.8082 133.992 51.9483 134.75 50.0638 134.814H50.0669Z" fill="#892B04"/>
<path d="M50.3008 142.618C52.678 141.315 54.5594 138.259 52.8535 135.725C53.4108 135.477 53.9897 135.242 54.584 135.019C56.2622 134.392 57.4262 133.585 58.6486 132.362C58.7133 132.295 58.8211 132.295 58.8888 132.362C58.8888 132.362 58.8888 132.362 58.8919 132.366C59.9327 133.432 60.3207 135.33 60.5085 136.856C60.6347 137.895 60.3453 138.729 59.6401 139.362C58.3992 140.475 56.9181 141.245 55.1968 141.676C54.2822 141.905 53.3862 142.162 52.5024 142.449C51.8158 142.673 51.0798 142.731 50.3008 142.618Z" fill="#5F1C02"/>
<path d="M110.575 144.678C111.154 143.11 110.781 141.78 109.46 140.695C108.971 140.291 108.419 139.854 107.807 139.381C108.506 139.026 109.183 138.659 109.839 138.28C110.575 137.855 111.194 137.406 111.696 136.926C112.733 135.936 113.503 135.083 114.005 134.368C114.128 134.19 114.372 134.148 114.55 134.27C114.596 134.3 114.633 134.34 114.661 134.389C114.88 134.747 115.178 135.401 115.557 136.351C116.521 138.775 116.293 140.854 114.208 142.673C113.845 142.994 111.653 144.681 110.575 144.678Z" fill="#5F1C02"/>
<path d="M47.668 156.614C49.5371 156.308 50.9289 155.984 51.8403 155.639C54.1344 154.777 56.1236 152.5 56.2067 149.88C56.2652 148.052 56.1975 146.704 54.6609 145.644C53.6109 144.919 52.4531 144.363 51.1875 143.975C52.1852 143.703 53.1891 143.473 54.196 143.287C55.5724 143.033 56.5177 142.81 57.0381 142.618C57.9834 142.266 58.8518 141.832 59.6432 141.315C59.7633 141.236 59.9265 141.267 60.0127 141.386C61.2598 143.156 62.2359 145.115 62.9441 147.264C63.6215 149.324 63.794 151.647 61.8017 153.203C59.9388 154.658 57.3922 155.495 55.1875 155.981C53.7803 156.293 51.2738 156.504 47.668 156.614Z" fill="#5F1C02"/>
<path d="M118.648 155.954C118.488 153.527 118.205 150.33 116.259 148.688C115.193 147.789 113.663 147.258 112.561 146.001C112.912 145.738 113.281 145.5 113.669 145.286C114.904 144.607 115.865 143.755 116.711 142.639C116.798 142.526 116.964 142.501 117.078 142.587C117.106 142.608 117.127 142.633 117.146 142.663C118.528 145.014 119.612 146.924 120.403 148.395C120.634 148.826 121.041 149.789 121.626 151.289C121.811 151.763 121.703 152.374 121.306 153.126C120.693 154.282 119.809 155.223 118.648 155.954Z" fill="#5F1C02"/>
<path d="M44.9008 42.1236C48.1463 42.952 51.7799 43.6825 55.8044 44.3183C57.2055 44.5415 59.5426 45.2109 59.6658 46.7942C59.7921 48.4265 58.4895 48.5151 57.2147 48.347C54.5142 47.9894 51.706 47.4667 48.7868 46.7789C47.4535 46.4641 46.1725 46.0606 44.947 45.5624C44.6145 45.4279 44.4051 45.0947 44.4297 44.7401L44.596 42.3437C44.6052 42.2092 44.7222 42.1084 44.8577 42.1175C44.8731 42.1175 44.8854 42.1206 44.9008 42.1236Z" fill="#FFE8B4"/>
<path d="M55.942 49.5146C56.0067 49.5238 56.0529 49.5849 56.0437 49.6491C56.0375 49.695 56.0036 49.7347 55.9605 49.7469C53.8235 50.4866 53.3432 52.6508 53.8204 54.6193C54.0976 55.7655 54.735 56.6366 55.7326 57.2327C55.8127 57.2785 55.8404 57.3825 55.7942 57.4619C55.7758 57.4925 55.748 57.517 55.7142 57.5322C54.347 58.1252 53.1245 58.8466 52.0499 59.6994C51.9051 59.8125 51.7235 59.8706 51.5387 59.8614C48.8475 59.7055 46.8798 57.9418 46.6766 55.3009C46.4857 52.7883 47.6527 50.2452 49.608 48.6526C49.8236 48.4754 50.1038 48.4051 50.3748 48.457L55.942 49.5146Z" fill="#FFE8B4"/>
<path d="M54.7178 52.3971C54.453 52.3176 54.3236 51.9814 54.4253 51.6451C54.5269 51.3089 54.8256 51.101 55.0873 51.1805C55.3521 51.26 55.4814 51.5962 55.3798 51.9324C55.2782 52.2687 54.9795 52.4765 54.7178 52.3971Z" fill="#FFE8B4"/>
<path d="M91.3817 46.2716L89.4664 47.9558C88.9953 46.8707 88.3024 46.0331 87.3941 45.4432C83.2463 42.7472 77.8823 42.2245 72.8385 42.6555C70.4859 42.8573 66.5876 44.0157 66.5537 46.8951C66.5291 48.9247 68.1549 49.371 69.8023 49.5025C69.8731 49.5086 69.9286 49.5697 69.9224 49.6369C69.9224 49.6553 69.9163 49.6736 69.907 49.6889C69.8608 49.7776 69.8023 49.8265 69.7315 49.8417C68.429 49.9732 67.5268 49.9671 67.0279 49.8234C65.4729 49.3771 63.9148 48.9492 62.3536 48.5427C61.7039 48.3745 61.048 48.2951 60.3829 48.3042C60.9864 46.7667 61.2759 45.162 61.2543 43.4839C61.2543 43.438 61.2143 43.3983 61.1681 43.3983C61.1527 43.3983 61.1404 43.4014 61.1281 43.4105C61.0449 43.4564 60.9864 43.5328 60.9587 43.6367C60.6785 44.6699 60.5245 45.2231 60.4999 45.2995C60.4722 45.3882 60.3737 45.434 60.2844 45.4035C60.2567 45.3943 60.232 45.379 60.2135 45.3607C58.8464 43.9271 56.7155 43.3127 54.5847 42.952C50.751 42.301 47.4531 41.7202 44.6911 41.2036C44.5402 41.1731 44.4416 41.0263 44.4724 40.8766C44.494 40.7726 44.571 40.6901 44.6726 40.6626C50.0305 39.2963 55.2221 39.0059 61.1342 39.1587C69.439 39.3788 77.7406 40.9407 85.7898 43.1477C87.6773 43.6642 89.5926 44.2725 91.5356 44.9664C91.6219 44.9969 91.6742 45.0795 91.6681 45.1712C91.6311 45.5746 91.5356 45.9414 91.3817 46.2716Z" fill="#F16E31"/>
<path d="M70.696 65.8067C70.4189 65.8403 70.1325 65.7883 69.8338 65.6538C70.1787 64.9019 69.9816 64.4678 69.2457 64.3548C66.7084 63.9574 63.4813 66.2193 61.5845 67.1669C59.5799 68.1695 57.5661 68.6066 55.5492 68.4782C53.3999 68.3437 52.0419 67.4389 50.995 65.6263C50.8964 65.4582 50.6809 65.3879 50.5146 65.4704C50.4192 65.5163 50.3576 65.6049 50.3453 65.7089C50.3237 65.9075 50.2252 66.0909 50.0527 66.2621L50.1174 64.4892C50.4777 64.1102 50.9303 63.4958 51.4753 62.643C52.4761 61.0719 54.0342 60.7234 55.9864 60.6898C57.3198 60.6684 58.4622 60.5981 59.8447 60.2038C61.2396 59.8095 62.6561 59.4549 64.0941 59.134L65.606 59.7361C65.6553 59.7545 65.7107 59.727 65.7292 59.6781C65.7446 59.6383 65.7292 59.5955 65.6953 59.5711L63.8478 58.3331C65.0271 57.8716 66.188 57.8807 67.3273 58.3576C67.3889 58.382 67.4443 58.4279 67.4813 58.4829L71.8045 64.7766C71.9062 64.9264 71.8661 65.125 71.7152 65.2259C71.6937 65.2412 71.669 65.2534 71.6444 65.2626C71.3057 65.3787 70.9885 65.5591 70.696 65.8067Z" fill="#F16E31"/>
<path d="M111.616 101.123C115.899 102.609 116.786 108.401 115.052 111.999C114.467 113.209 113.525 114.016 112.226 114.417C112.179 114.432 112.133 114.405 112.118 114.359C112.115 114.346 112.115 114.334 112.115 114.325C112.678 109.936 112.463 105.577 111.468 101.252C111.453 101.194 111.493 101.133 111.554 101.12C111.576 101.117 111.597 101.117 111.616 101.123Z" fill="#8E2604"/>
<path d="M57.8306 80.6101C57.7598 80.6284 57.6828 80.5857 57.6643 80.5154C57.6551 80.4787 57.6612 80.4389 57.6828 80.4053C58.6158 79.0206 59.9245 77.8958 61.6088 77.0308C66.2431 74.6496 71.1453 74.0108 76.3215 75.1081C77.0605 75.264 78.4862 75.8601 78.711 76.5937C78.7695 76.7832 78.6617 76.9849 78.4708 77.043C78.4184 77.0583 78.3599 77.0644 78.3045 77.0552C75.0436 76.5142 71.872 76.4255 68.7835 76.7862C65.036 77.2233 61.538 78.4368 58.2956 80.4206C58.1693 80.497 58.0123 80.5612 57.8306 80.6101Z" fill="#1B0302"/>
<path d="M69.366 81.1786C68.6793 81.359 67.9095 81.6127 67.0504 81.9397C67.0227 81.955 66.9857 81.9459 66.9703 81.9183C66.9549 81.8908 66.9641 81.8542 66.9919 81.8389C67.7186 81.307 68.4699 80.9402 69.249 80.7354C70.028 80.5337 70.8656 80.4878 71.7616 80.5979C71.7924 80.5979 71.8201 80.6254 71.8201 80.6559C71.8201 80.6865 71.7924 80.714 71.7616 80.714C70.8502 80.8455 70.0526 81.0013 69.366 81.1786Z" fill="#1B0302"/>
<path d="M81.3013 85.6903L81.3475 85.7972C81.3537 85.8156 81.3475 85.8339 81.329 85.84C76.9041 87.6924 72.6763 90.1408 69.1136 93.5948C69.0859 93.6162 69.049 93.6101 69.0274 93.5826C69.012 93.5642 69.009 93.5398 69.0213 93.5184C69.5355 92.7817 70.1298 92.1154 70.8011 91.5224C73.8033 88.8722 77.2921 86.9251 81.2674 85.675C81.2828 85.6719 81.2952 85.678 81.3013 85.6903Z" fill="#1B0302"/>
<path d="M119.517 116.737C119.538 116.703 119.581 116.694 119.615 116.715L119.695 116.764C119.821 116.844 119.129 118.17 118.143 119.726L118.063 119.855C117.081 121.41 116.179 122.609 116.052 122.529L115.972 122.477C115.942 122.456 115.932 122.416 115.951 122.382L119.517 116.737Z" fill="#1B0302"/>
<path d="M65.3538 46.7851C65.3507 46.8034 65.3322 46.8156 65.3137 46.8095L65.2953 46.8034C65.0705 46.7453 65.1013 45.8222 65.3599 44.7371L65.3784 44.6546C65.6401 43.5664 66.0343 42.7258 66.2621 42.7778L66.2806 42.7839C66.2991 42.787 66.3083 42.8053 66.3052 42.8237L65.3568 46.7851H65.3538Z" fill="#252815"/>
<path d="M84.4591 106.332L83.4337 113.115C83.3567 113.631 82.8702 113.989 82.3498 113.912L81.6754 113.812C81.2012 113.741 80.8594 113.326 80.8841 112.849C80.9426 111.812 81.0534 110.758 81.2166 109.688C82.2605 102.884 82.8917 98.8675 83.1073 97.6357C83.292 96.572 83.8186 96.0371 84.69 96.0309C87.8647 96.0095 91.3258 97.9322 90.7808 101.548C90.5313 103.211 89.1272 104.874 87.5753 105.461C87.3628 105.543 87.2519 105.776 87.3258 105.99L89.82 113.093C89.9925 113.585 89.7307 114.123 89.235 114.294C89.1642 114.319 89.0903 114.334 89.0164 114.343L88.5637 114.398C87.8986 114.484 87.2704 114.077 87.0795 113.442L84.921 106.298C84.884 106.173 84.7547 106.103 84.6315 106.142C84.5422 106.17 84.4775 106.243 84.4621 106.332H84.4591Z" fill="#F07216"/>
<path d="M95.2456 106.72C95.1748 106.714 95.1132 106.769 95.107 106.839L94.6852 112.91C94.6759 113.069 94.7929 113.206 94.953 113.215L97.5057 113.393C97.6474 113.402 97.7736 113.481 97.8414 113.607C98.0231 113.946 98.0569 114.447 97.943 115.111C97.8876 115.429 97.6351 115.676 97.3118 115.728C95.8861 115.948 94.4511 115.847 93.0039 115.422C92.2864 115.211 91.9569 114.707 92.0093 113.906C92.2556 110.257 92.579 105.308 92.9793 99.0631C93.0562 97.8558 93.6567 97.2108 94.7744 97.1252C95.8429 97.0427 97.0593 97.0885 98.4203 97.2689C99.0946 97.3575 99.5812 97.9505 99.535 98.626L99.5103 98.9867C99.4703 99.5675 98.9653 100.002 98.3833 99.9618C98.3279 99.9587 98.2725 99.9496 98.2171 99.9374L95.9015 99.4024C95.7598 99.3688 95.6182 99.4575 95.5843 99.6011C95.5812 99.6133 95.5781 99.6286 95.5781 99.6409L95.2487 104.403C95.2425 104.48 95.301 104.55 95.3811 104.556C95.3841 104.556 95.3903 104.556 95.3934 104.556H97.3795C97.8783 104.556 98.2848 104.959 98.2848 105.455V105.919C98.2848 106.439 97.8599 106.861 97.3364 106.861C97.3148 106.861 97.2933 106.861 97.2717 106.861L95.2456 106.723V106.72Z" fill="#F07216"/>
<path d="M104.195 100.2C104.145 100.197 104.102 100.231 104.099 100.28L103.761 105.149C103.751 105.277 103.85 105.387 103.979 105.397C103.979 105.397 103.982 105.397 103.985 105.397C105.334 105.458 107.249 105.005 106.56 107.301C106.486 107.542 106.282 107.723 106.03 107.765C105.306 107.888 104.626 107.888 103.985 107.765C103.881 107.747 103.779 107.817 103.761 107.921C103.761 107.927 103.761 107.934 103.761 107.94L103.366 113.595C103.354 113.769 103.486 113.919 103.662 113.931C103.668 113.931 103.677 113.931 103.684 113.931H105.602C106.008 113.931 106.338 114.258 106.338 114.664V115.322C106.338 115.786 105.987 116.177 105.522 116.226C104.509 116.336 103.379 116.336 102.132 116.226C100.638 116.101 100.881 115.074 100.955 113.793C101.18 109.92 101.346 105.042 101.451 99.1579C101.466 98.3846 101.851 97.8833 102.655 97.7641C104.081 97.5532 105.5 97.6296 106.917 97.9933C107.219 98.0697 107.443 98.3173 107.493 98.623C107.57 99.0937 107.551 99.5033 107.443 99.8518C107.342 100.179 107.025 100.393 106.68 100.368L104.198 100.2H104.195Z" fill="#F07216"/>
<path d="M87.3052 47.1121C86.4338 47.0663 85.5192 47.0602 84.5616 47.0999C79.3638 47.3078 74.6464 47.7051 70.4063 48.292C69.4918 48.4173 68.8759 48.399 68.5618 48.237C67.715 47.7907 67.5149 46.9287 67.909 46.0943C69.5811 42.5485 78.942 43.6459 82.0643 44.3122C84.0196 44.731 85.8056 45.5502 87.4284 46.7728C87.5115 46.837 87.5269 46.9562 87.4622 47.0388C87.4253 47.0877 87.3668 47.1152 87.3052 47.1121Z" fill="#FFE8B4"/>
<path d="M79.8131 50.0954C79.8593 50.1382 79.8593 50.2116 79.8131 50.2544C79.7885 50.2788 79.7516 50.2911 79.7177 50.288C78.7015 50.1719 77.9717 50.5234 77.4113 51.3548C76.5029 52.7028 76.3521 54.1852 76.9648 55.7992C77.4021 56.9485 78.2366 57.6729 79.4652 57.9694C79.5699 57.9938 79.6777 57.9969 79.7823 57.9755C80.1057 57.9113 80.4136 57.7677 80.7092 57.5445C80.7492 57.514 80.8047 57.5231 80.8354 57.5629C80.8354 57.5629 80.8385 57.569 80.8416 57.572C80.894 57.6546 80.894 57.734 80.8447 57.8166C79.7977 59.513 78.5168 60.6042 77.0049 61.0902C73.7316 62.1417 70.4245 60.8029 69.4084 57.3917C68.6416 54.821 69.1497 52.4154 70.9326 50.1749C71.3637 49.6308 71.8718 49.3435 72.4568 49.3099C73.5161 49.2518 74.9048 49.1387 76.62 48.9706C77.8917 48.8453 78.954 49.2212 79.8131 50.0954Z" fill="#FFE8B4"/>
<path d="M77.62 53.4639C77.3644 53.4088 77.2166 53.094 77.2905 52.7578C77.3644 52.4215 77.6292 52.1953 77.8817 52.2504C78.1373 52.3054 78.2851 52.6202 78.2112 52.9565C78.1373 53.2927 77.8725 53.5189 77.62 53.4639Z" fill="#FFE8B4"/>
<path d="M85.3908 98.7239C85.4155 98.5649 85.5633 98.4549 85.7234 98.4763L85.8004 98.4885C87.4046 98.7178 88.5347 100.081 88.3223 101.536L88.313 101.606C88.1036 103.061 86.6348 104.055 85.0305 103.825C85.0305 103.825 85.0275 103.825 85.0244 103.825L84.9505 103.813C84.7873 103.792 84.6764 103.642 84.698 103.483L85.3908 98.7269V98.7239Z" fill="#8E2604"/>
</svg>
