<svg width="24" height="24" viewBox="0 0 24 24" fill="none" xmlns="http://www.w3.org/2000/svg">
<mask id="mask0_647_2850" style="mask-type:luminance" maskUnits="userSpaceOnUse" x="0" y="0" width="24" height="24">
<path d="M0 1.90735e-06H24V24H0V1.90735e-06Z" fill="white"/>
</mask>
<g mask="url(#mask0_647_2850)">
<path d="M19.5007 8.06238H4.49934C3.32241 9.62918 2.625 11.5769 2.625 13.6874C2.625 18.8651 6.82238 23.0624 12 23.0624C17.1777 23.0624 21.375 18.8651 21.375 13.6874C21.375 11.5769 20.6776 9.62918 19.5007 8.06238Z" stroke="currentColor" stroke-width="1.82291" stroke-miterlimit="10" stroke-linecap="round" stroke-linejoin="round"/>
<path d="M21.375 8.0625H2.625" stroke="currentColor" stroke-width="1.82291" stroke-miterlimit="10" stroke-linecap="round" stroke-linejoin="round"/>
<path d="M13.9887 12.6362C15.0871 13.7346 15.0871 15.5153 13.9887 16.6137C12.8904 17.712 11.1096 17.712 10.0112 16.6137C8.91293 15.5153 8.91293 13.7346 10.0112 12.6362" stroke="currentColor" stroke-width="1.82291" stroke-miterlimit="10" stroke-linecap="round" stroke-linejoin="round"/>
<path d="M4.5 23.0625L6.37458 21.1879" stroke="currentColor" stroke-width="1.82291" stroke-miterlimit="10" stroke-linecap="round" stroke-linejoin="round"/>
<path d="M17.625 21.1879L19.4996 23.0625" stroke="currentColor" stroke-width="1.82291" stroke-miterlimit="10" stroke-linecap="round" stroke-linejoin="round"/>
<path d="M4.5 4.6875H7.3125" stroke="currentColor" stroke-width="1.82291" stroke-miterlimit="10" stroke-linecap="round" stroke-linejoin="round"/>
<path d="M11.0625 4.6875H13.875" stroke="currentColor" stroke-width="1.82291" stroke-miterlimit="10" stroke-linecap="round" stroke-linejoin="round"/>
<path d="M7.3125 0.937439H10.125" stroke="currentColor" stroke-width="1.82291" stroke-miterlimit="10" stroke-linecap="round" stroke-linejoin="round"/>
<path d="M13.875 0.937439H16.6875" stroke="currentColor" stroke-width="1.82291" stroke-miterlimit="10" stroke-linecap="round" stroke-linejoin="round"/>
<path d="M16.6875 4.6875H19.5" stroke="currentColor" stroke-width="1.82291" stroke-miterlimit="10" stroke-linecap="round" stroke-linejoin="round"/>
</g>
</svg>
