<svg width="1009" height="1009" viewBox="0 0 1009 1009" fill="none" xmlns="http://www.w3.org/2000/svg">
<g style="mix-blend-mode:screen" opacity="0.75">
<path fill-rule="evenodd" clip-rule="evenodd" d="M504.531 504.53L438.691 4.36834C460.551 1.49599 482.541 0.0598145 504.531 0.0598145C526.521 0.0598145 548.53 1.49599 570.371 4.36834L504.531 504.53Z" fill="url(#paint0_linear_461_1602)"/>
</g>
<g style="mix-blend-mode:screen" opacity="0.75">
<path fill-rule="evenodd" clip-rule="evenodd" d="M504.53 504.53L197.432 104.304C214.927 90.893 233.243 78.6389 252.305 67.6345C271.348 56.63 291.119 46.8752 311.486 38.4447L504.53 504.511V504.53Z" fill="url(#paint1_linear_461_1602)"/>
</g>
<g style="mix-blend-mode:screen" opacity="0.75">
<path fill-rule="evenodd" clip-rule="evenodd" d="M504.53 504.53L38.4634 311.486C46.8939 291.118 56.6487 271.347 67.6532 252.304C78.6576 233.261 90.8931 214.926 104.322 197.431L504.549 504.53H504.53Z" fill="url(#paint2_linear_461_1602)"/>
</g>
<g style="mix-blend-mode:screen" opacity="0.75">
<path fill-rule="evenodd" clip-rule="evenodd" d="M504.53 504.53L4.36809 570.37C1.49574 548.51 0.0595703 526.52 0.0595703 504.53C0.0595703 482.54 1.49574 460.531 4.36809 438.69L504.53 504.53Z" fill="url(#paint3_linear_461_1602)"/>
</g>
<g style="mix-blend-mode:screen" opacity="0.75">
<path fill-rule="evenodd" clip-rule="evenodd" d="M504.53 504.53L104.304 811.629C90.8932 794.133 78.6391 775.818 67.6346 756.756C56.6301 737.712 46.8754 717.942 38.4448 697.574L504.511 504.53H504.53Z" fill="url(#paint4_linear_461_1602)"/>
</g>
<g style="mix-blend-mode:screen" opacity="0.75">
<path fill-rule="evenodd" clip-rule="evenodd" d="M504.53 504.53L311.486 970.596C291.119 962.166 271.348 952.411 252.305 941.407C233.261 930.402 214.927 918.167 197.432 904.738L504.53 504.511V504.53Z" fill="url(#paint5_linear_461_1602)"/>
</g>
<g style="mix-blend-mode:screen" opacity="0.75">
<path fill-rule="evenodd" clip-rule="evenodd" d="M504.531 504.53L570.371 1004.69C548.512 1007.56 526.521 1009 504.531 1009C482.541 1009 460.532 1007.56 438.691 1004.69L504.531 504.53Z" fill="url(#paint6_linear_461_1602)"/>
</g>
<g style="mix-blend-mode:screen" opacity="0.75">
<path fill-rule="evenodd" clip-rule="evenodd" d="M504.53 504.53L811.629 904.756C794.134 918.167 775.818 930.421 756.756 941.425C737.713 952.43 717.942 962.185 697.574 970.615L504.53 504.549V504.53Z" fill="url(#paint7_linear_461_1602)"/>
</g>
<g style="mix-blend-mode:screen" opacity="0.75">
<path fill-rule="evenodd" clip-rule="evenodd" d="M504.53 504.53L970.597 697.574C962.166 717.942 952.412 737.712 941.407 756.756C930.403 775.799 918.167 794.133 904.738 811.629L504.512 504.53H504.53Z" fill="url(#paint8_linear_461_1602)"/>
</g>
<g style="mix-blend-mode:screen" opacity="0.75">
<path fill-rule="evenodd" clip-rule="evenodd" d="M504.53 504.53L1004.69 438.69C1007.56 460.55 1009 482.54 1009 504.53C1009 526.52 1007.56 548.529 1004.69 570.37L504.53 504.53Z" fill="url(#paint9_linear_461_1602)"/>
</g>
<g style="mix-blend-mode:screen" opacity="0.75">
<path fill-rule="evenodd" clip-rule="evenodd" d="M504.53 504.53L904.757 197.431C918.167 214.926 930.421 233.242 941.426 252.304C952.43 271.347 962.185 291.118 970.615 311.486L504.549 504.53H504.53Z" fill="url(#paint10_linear_461_1602)"/>
</g>
<g style="mix-blend-mode:screen" opacity="0.75">
<path fill-rule="evenodd" clip-rule="evenodd" d="M504.53 504.53L697.574 38.4634C717.942 46.8939 737.713 56.6487 756.756 67.6531C775.799 78.6576 794.134 90.8931 811.629 104.322L504.53 504.549V504.53Z" fill="url(#paint11_linear_461_1602)"/>
</g>
<g style="mix-blend-mode:screen" opacity="0.75">
<path fill-rule="evenodd" clip-rule="evenodd" d="M504.531 504.53L438.691 4.36834C460.551 1.49599 482.541 0.0598145 504.531 0.0598145C526.521 0.0598145 548.53 1.49599 570.371 4.36834L504.531 504.53Z" fill="url(#paint12_linear_461_1602)"/>
</g>
<g style="mix-blend-mode:screen" opacity="0.75">
<path fill-rule="evenodd" clip-rule="evenodd" d="M504.53 504.53L197.432 104.304C214.927 90.893 233.243 78.6389 252.305 67.6345C271.348 56.63 291.119 46.8752 311.486 38.4447L504.53 504.511V504.53Z" fill="url(#paint13_linear_461_1602)"/>
</g>
<g style="mix-blend-mode:screen" opacity="0.75">
<path fill-rule="evenodd" clip-rule="evenodd" d="M504.53 504.53L38.4634 311.486C46.8939 291.118 56.6487 271.347 67.6532 252.304C78.6576 233.261 90.8931 214.926 104.322 197.431L504.549 504.53H504.53Z" fill="url(#paint14_linear_461_1602)"/>
</g>
<g style="mix-blend-mode:screen" opacity="0.75">
<path fill-rule="evenodd" clip-rule="evenodd" d="M504.53 504.53L4.36809 570.37C1.49574 548.51 0.0595703 526.52 0.0595703 504.53C0.0595703 482.54 1.49574 460.531 4.36809 438.69L504.53 504.53Z" fill="url(#paint15_linear_461_1602)"/>
</g>
<g style="mix-blend-mode:screen" opacity="0.75">
<path fill-rule="evenodd" clip-rule="evenodd" d="M504.53 504.53L104.304 811.629C90.8932 794.133 78.6391 775.818 67.6346 756.756C56.6301 737.712 46.8754 717.942 38.4448 697.574L504.511 504.53H504.53Z" fill="url(#paint16_linear_461_1602)"/>
</g>
<g style="mix-blend-mode:screen" opacity="0.75">
<path fill-rule="evenodd" clip-rule="evenodd" d="M504.53 504.53L311.486 970.596C291.119 962.166 271.348 952.411 252.305 941.407C233.261 930.402 214.927 918.167 197.432 904.738L504.53 504.511V504.53Z" fill="url(#paint17_linear_461_1602)"/>
</g>
<g style="mix-blend-mode:screen" opacity="0.75">
<path fill-rule="evenodd" clip-rule="evenodd" d="M504.531 504.53L570.371 1004.69C548.512 1007.56 526.521 1009 504.531 1009C482.541 1009 460.532 1007.56 438.691 1004.69L504.531 504.53Z" fill="url(#paint18_linear_461_1602)"/>
</g>
<g style="mix-blend-mode:screen" opacity="0.75">
<path fill-rule="evenodd" clip-rule="evenodd" d="M504.53 504.53L811.629 904.756C794.134 918.167 775.818 930.421 756.756 941.425C737.713 952.43 717.942 962.185 697.574 970.615L504.53 504.549V504.53Z" fill="url(#paint19_linear_461_1602)"/>
</g>
<g style="mix-blend-mode:screen" opacity="0.75">
<path fill-rule="evenodd" clip-rule="evenodd" d="M504.53 504.53L970.597 697.574C962.166 717.942 952.412 737.712 941.407 756.756C930.403 775.799 918.167 794.133 904.738 811.629L504.512 504.53H504.53Z" fill="url(#paint20_linear_461_1602)"/>
</g>
<g style="mix-blend-mode:screen" opacity="0.75">
<path fill-rule="evenodd" clip-rule="evenodd" d="M504.53 504.53L1004.69 438.69C1007.56 460.55 1009 482.54 1009 504.53C1009 526.52 1007.56 548.529 1004.69 570.37L504.53 504.53Z" fill="url(#paint21_linear_461_1602)"/>
</g>
<g style="mix-blend-mode:screen" opacity="0.75">
<path fill-rule="evenodd" clip-rule="evenodd" d="M504.53 504.53L904.757 197.431C918.167 214.926 930.421 233.242 941.426 252.304C952.43 271.347 962.185 291.118 970.615 311.486L504.549 504.53H504.53Z" fill="url(#paint22_linear_461_1602)"/>
</g>
<g style="mix-blend-mode:screen" opacity="0.75">
<path fill-rule="evenodd" clip-rule="evenodd" d="M504.53 504.53L697.574 38.4634C717.942 46.8939 737.713 56.6487 756.756 67.6531C775.799 78.6576 794.134 90.8931 811.629 104.322L504.53 504.549V504.53Z" fill="url(#paint23_linear_461_1602)"/>
</g>
<defs>
<linearGradient id="paint0_linear_461_1602" x1="504.531" y1="504.53" x2="504.531" y2="0.0598145" gradientUnits="userSpaceOnUse">
<stop stop-color="#FEBA01" stop-opacity="0.6"/>
<stop offset="0.83" stop-color="#FEBA01" stop-opacity="0"/>
</linearGradient>
<linearGradient id="paint1_linear_461_1602" x1="504.544" y1="504.538" x2="252.3" y2="67.6378" gradientUnits="userSpaceOnUse">
<stop stop-color="#FEBA01" stop-opacity="0.6"/>
<stop offset="0.83" stop-color="#FEBA01" stop-opacity="0"/>
</linearGradient>
<linearGradient id="paint2_linear_461_1602" x1="504.532" y1="504.533" x2="67.6478" y2="252.298" gradientUnits="userSpaceOnUse">
<stop stop-color="#FEBA01" stop-opacity="0.6"/>
<stop offset="0.83" stop-color="#FEBA01" stop-opacity="0"/>
</linearGradient>
<linearGradient id="paint3_linear_461_1602" x1="504.53" y1="504.53" x2="0.0595703" y2="504.53" gradientUnits="userSpaceOnUse">
<stop stop-color="#FEBA01" stop-opacity="0.6"/>
<stop offset="0.83" stop-color="#FEBA01" stop-opacity="0"/>
</linearGradient>
<linearGradient id="paint4_linear_461_1602" x1="504.499" y1="504.536" x2="67.6149" y2="756.771" gradientUnits="userSpaceOnUse">
<stop stop-color="#FEBA01" stop-opacity="0.6"/>
<stop offset="0.83" stop-color="#FEBA01" stop-opacity="0"/>
</linearGradient>
<linearGradient id="paint5_linear_461_1602" x1="504.54" y1="504.56" x2="252.296" y2="941.46" gradientUnits="userSpaceOnUse">
<stop stop-color="#FEBA01" stop-opacity="0.6"/>
<stop offset="0.83" stop-color="#FEBA01" stop-opacity="0"/>
</linearGradient>
<linearGradient id="paint6_linear_461_1602" x1="504.512" y1="504.53" x2="504.512" y2="1009" gradientUnits="userSpaceOnUse">
<stop stop-color="#FEBA01" stop-opacity="0.6"/>
<stop offset="0.83" stop-color="#FEBA01" stop-opacity="0"/>
</linearGradient>
<linearGradient id="paint7_linear_461_1602" x1="504.45" y1="504.551" x2="756.694" y2="941.451" gradientUnits="userSpaceOnUse">
<stop stop-color="#FEBA01" stop-opacity="0.6"/>
<stop offset="0.83" stop-color="#FEBA01" stop-opacity="0"/>
</linearGradient>
<linearGradient id="paint8_linear_461_1602" x1="504.522" y1="504.579" x2="941.423" y2="756.823" gradientUnits="userSpaceOnUse">
<stop stop-color="#FEBA01" stop-opacity="0.6"/>
<stop offset="0.83" stop-color="#FEBA01" stop-opacity="0"/>
</linearGradient>
<linearGradient id="paint9_linear_461_1602" x1="504.53" y1="504.53" x2="1009" y2="504.53" gradientUnits="userSpaceOnUse">
<stop stop-color="#FEBA01" stop-opacity="0.6"/>
<stop offset="0.83" stop-color="#FEBA01" stop-opacity="0"/>
</linearGradient>
<linearGradient id="paint10_linear_461_1602" x1="504.513" y1="504.553" x2="941.413" y2="252.309" gradientUnits="userSpaceOnUse">
<stop stop-color="#FEBA01" stop-opacity="0.6"/>
<stop offset="0.83" stop-color="#FEBA01" stop-opacity="0"/>
</linearGradient>
<linearGradient id="paint11_linear_461_1602" x1="504.514" y1="504.552" x2="756.759" y2="67.6514" gradientUnits="userSpaceOnUse">
<stop stop-color="#FEBA01" stop-opacity="0.6"/>
<stop offset="0.83" stop-color="#FEBA01" stop-opacity="0"/>
</linearGradient>
<linearGradient id="paint12_linear_461_1602" x1="504.531" y1="504.53" x2="504.531" y2="0.0598145" gradientUnits="userSpaceOnUse">
<stop stop-color="#FEBA01" stop-opacity="0.6"/>
<stop offset="0.83" stop-color="#FEBA01" stop-opacity="0"/>
</linearGradient>
<linearGradient id="paint13_linear_461_1602" x1="504.544" y1="504.538" x2="252.3" y2="67.6378" gradientUnits="userSpaceOnUse">
<stop stop-color="#FEBA01" stop-opacity="0.6"/>
<stop offset="0.83" stop-color="#FEBA01" stop-opacity="0"/>
</linearGradient>
<linearGradient id="paint14_linear_461_1602" x1="504.532" y1="504.533" x2="67.6478" y2="252.298" gradientUnits="userSpaceOnUse">
<stop stop-color="#FEBA01" stop-opacity="0.6"/>
<stop offset="0.83" stop-color="#FEBA01" stop-opacity="0"/>
</linearGradient>
<linearGradient id="paint15_linear_461_1602" x1="504.53" y1="504.53" x2="0.0595703" y2="504.53" gradientUnits="userSpaceOnUse">
<stop stop-color="#FEBA01" stop-opacity="0.6"/>
<stop offset="0.83" stop-color="#FEBA01" stop-opacity="0"/>
</linearGradient>
<linearGradient id="paint16_linear_461_1602" x1="504.499" y1="504.536" x2="67.6149" y2="756.771" gradientUnits="userSpaceOnUse">
<stop stop-color="#FEBA01" stop-opacity="0.6"/>
<stop offset="0.83" stop-color="#FEBA01" stop-opacity="0"/>
</linearGradient>
<linearGradient id="paint17_linear_461_1602" x1="504.54" y1="504.56" x2="252.296" y2="941.46" gradientUnits="userSpaceOnUse">
<stop stop-color="#FEBA01" stop-opacity="0.6"/>
<stop offset="0.83" stop-color="#FEBA01" stop-opacity="0"/>
</linearGradient>
<linearGradient id="paint18_linear_461_1602" x1="504.512" y1="504.53" x2="504.512" y2="1009" gradientUnits="userSpaceOnUse">
<stop stop-color="#FEBA01" stop-opacity="0.6"/>
<stop offset="0.83" stop-color="#FEBA01" stop-opacity="0"/>
</linearGradient>
<linearGradient id="paint19_linear_461_1602" x1="504.45" y1="504.551" x2="756.694" y2="941.451" gradientUnits="userSpaceOnUse">
<stop stop-color="#FEBA01" stop-opacity="0.6"/>
<stop offset="0.83" stop-color="#FEBA01" stop-opacity="0"/>
</linearGradient>
<linearGradient id="paint20_linear_461_1602" x1="504.522" y1="504.579" x2="941.423" y2="756.823" gradientUnits="userSpaceOnUse">
<stop stop-color="#FEBA01" stop-opacity="0.6"/>
<stop offset="0.83" stop-color="#FEBA01" stop-opacity="0"/>
</linearGradient>
<linearGradient id="paint21_linear_461_1602" x1="504.53" y1="504.53" x2="1009" y2="504.53" gradientUnits="userSpaceOnUse">
<stop stop-color="#FEBA01" stop-opacity="0.6"/>
<stop offset="0.83" stop-color="#FEBA01" stop-opacity="0"/>
</linearGradient>
<linearGradient id="paint22_linear_461_1602" x1="504.513" y1="504.553" x2="941.413" y2="252.309" gradientUnits="userSpaceOnUse">
<stop stop-color="#FEBA01" stop-opacity="0.6"/>
<stop offset="0.83" stop-color="#FEBA01" stop-opacity="0"/>
</linearGradient>
<linearGradient id="paint23_linear_461_1602" x1="504.514" y1="504.552" x2="756.759" y2="67.6514" gradientUnits="userSpaceOnUse">
<stop stop-color="#FEBA01" stop-opacity="0.6"/>
<stop offset="0.83" stop-color="#FEBA01" stop-opacity="0"/>
</linearGradient>
</defs>
</svg>
